<?xml version="1.0" encoding="UTF-8" standalone="no"?>
<!-- Created with Inkscape (http://www.inkscape.org/) -->

<svg
   version="1.1"
   id="svg2"
   width="608.76001"
   height="601.34668"
   viewBox="0 0 608.76001 601.34668"
   sodipodi:docname="modal.eps"
   xmlns:inkscape="http://www.inkscape.org/namespaces/inkscape"
   xmlns:sodipodi="http://sodipodi.sourceforge.net/DTD/sodipodi-0.dtd"
   xmlns="http://www.w3.org/2000/svg"
   xmlns:svg="http://www.w3.org/2000/svg">
  <defs
     id="defs6" />
  <sodipodi:namedview
     id="namedview4"
     pagecolor="#ffffff"
     bordercolor="#000000"
     borderopacity="0.25"
     inkscape:showpageshadow="2"
     inkscape:pageopacity="0.0"
     inkscape:pagecheckerboard="0"
     inkscape:deskcolor="#d1d1d1" />
  <g
     id="g8"
     inkscape:groupmode="layer"
     inkscape:label="ink_ext_XXXXXX"
     transform="matrix(1.3333333,0,0,-1.3333333,0,601.34667)">
    <g
       id="g10"
       transform="scale(0.1)">
      <path
         d="M 3897.09,2157.74 C 4788.6,1664.13 4788.59,863.82 3897.08,370.211 3005.57,-123.398 1560.14,-123.398 668.629,370.199 -222.883,863.82 -222.879,1664.12 668.637,2157.74 c 891.523,493.62 2336.943,493.62 3228.453,0"
         style="fill:#ededeb;fill-opacity:1;fill-rule:nonzero;stroke:none"
         id="path12" />
      <path
         d="m 3025.65,1231.76 c 298.23,-165.12 298.23,-432.83 0,-597.959 -298.23,-165.121 -781.74,-165.121 -1079.97,0 -298.22,165.129 -298.22,432.839 0,597.959 298.23,165.12 781.75,165.12 1079.97,0"
         style="fill:#dadbd8;fill-opacity:1;fill-rule:nonzero;stroke:none"
         id="path14" />
      <path
         d="m 4130.79,1337.97 c 150.04,-83.07 150.04,-217.76 0,-300.84 -150.04,-83.071 -393.3,-83.071 -543.33,0 -150.04,83.07 -150.04,217.76 0,300.83 150.04,83.08 393.29,83.08 543.33,0.01"
         style="fill:#dadbd8;fill-opacity:1;fill-rule:nonzero;stroke:none"
         id="path16" />
      <path
         d="m 1382.63,1397.51 c 284.05,-157.27 284.04,-412.26 0,-569.53 -284.05,-157.269 -744.575,-157.269 -1028.618,0 -284.0432,157.27 -284.0432,412.26 0,569.53 284.051,157.27 744.578,157.27 1028.618,0"
         style="fill:#dadbd8;fill-opacity:1;fill-rule:nonzero;stroke:none"
         id="path18" />
      <path
         d="m 3665.6,1139.47 c -102.89,104.99 -163.32,532.23 -62.97,615.5 h 510.6 c 100.32,-83.24 39.95,-510.35 -62.87,-615.4 -0.88,-0.97 -1.89,-1.91 -2.81,-2.88 -1.18,-1.17 -2.35,-2.34 -3.55,-3.47 -2.91,-2.81 -5.98,-5.57 -9.3,-8.27 l -2.45,-1.93 c -2.53,-1.98 -5.01,-3.96 -7.78,-5.87 -4.38,-3.11 -8.81,-6 -13.29,-8.49 -84.64,-48.87 -221.85,-48.87 -306.47,0 h -0.01 -0.01 c -4.52,2.5 -8.98,5.42 -13.39,8.56 -2.57,1.77 -4.87,3.62 -7.24,5.47 -1,0.8 -2.02,1.54 -3.03,2.38 -3.2,2.61 -6.17,5.27 -8.97,7.98 -1.38,1.28 -2.73,2.65 -4.09,4 l -2.37,2.42"
         style="fill:#273e47;fill-opacity:1;fill-rule:nonzero;stroke:none"
         id="path20" />
      <path
         d="m 4068.89,1788.51 c 116.5,-67.27 116.5,-176.32 0,-243.59 -116.51,-67.26 -305.39,-67.26 -421.9,0 -116.5,67.26 -116.5,176.32 0,243.58 116.51,67.27 305.39,67.27 421.9,0.01"
         style="fill:#33535f;fill-opacity:1;fill-rule:nonzero;stroke:none"
         id="path22" />
      <path
         d="m 4012.85,1756.16 c 85.56,-49.4 85.56,-129.49 0,-178.89 -85.56,-49.39 -224.27,-49.39 -309.82,0 -85.56,49.4 -85.56,129.48 0,178.88 85.55,49.4 224.27,49.4 309.82,0.01"
         style="fill:#17282f;fill-opacity:1;fill-rule:nonzero;stroke:none"
         id="path24" />
      <path
         d="m 3703.03,1671.25 c 85.55,49.4 224.26,49.4 309.82,0.01 23.77,-13.72 40.69,-29.85 51.25,-46.99 -10.56,-17.15 -27.48,-33.27 -51.25,-47 -85.56,-49.39 -224.27,-49.39 -309.82,0 -23.77,13.73 -40.69,29.85 -51.25,47 10.56,17.14 27.48,33.26 51.25,46.98"
         style="fill:#f3f2f1;fill-opacity:1;fill-rule:nonzero;stroke:none"
         id="path26" />
      <path
         d="m 3907.72,1806.23 -73.31,52.12 c 0,0 -59.95,314.64 -8.16,450.34 51.78,135.7 147.24,134.86 192.75,98.56 45.52,-36.31 20.58,-149.87 1.94,-215.61 -22.44,-79.15 -93.92,-433.55 -43.54,-559.23 l -69.68,173.82"
         style="fill:#26b6a6;fill-opacity:1;fill-rule:nonzero;stroke:none"
         id="path28" />
      <path
         d="m 3876.27,1828.6 -41.86,29.75 c 0,0 -29.23,153.4 -29.24,292.17 0,59.98 5.45,117.22 21.08,158.17 33.99,89.07 86.79,119.32 131.94,119.32 23.64,0 45.17,-8.29 60.81,-20.76 19.03,-15.18 25.74,-43.85 25.76,-76.89 0.01,-46 -12.97,-100.46 -23.82,-138.72 -5.42,-19.12 -13.71,-54.31 -22.44,-98.45 -27.18,-14.87 -37.47,-46.24 -40.19,-86.71 -3.42,-50.78 -17.39,-81.08 -53.8,-87.36 -8.25,-1.42 -14.21,-3.79 -18.49,-6.61 -30.23,244.02 74.06,456.74 75.21,459.04 1.5,3.02 0.27,6.7 -2.74,8.21 -0.88,0.44 -1.81,0.65 -2.72,0.65 -2.25,0 -4.41,-1.25 -5.49,-3.38 -1.18,-2.39 -111.04,-226.26 -74.56,-479.86 -0.17,-1.17 -0.23,-2.27 -0.23,-3.29 0,-3.44 0.78,-5.8 0.78,-5.8 0,-19.83 0,-39.66 0,-59.48"
         style="fill:#14b099;fill-opacity:1;fill-rule:nonzero;stroke:none"
         id="path30" />
      <path
         d="m 3893.08,1842.8 c 2.72,1.1 4.33,4.03 3.69,6.99 -59.43,269.09 63.21,519.27 64.46,521.76 1.5,3.02 0.27,6.7 -2.74,8.21 -3.02,1.52 -6.69,0.26 -8.21,-2.73 -1.26,-2.54 -125.85,-256.45 -65.47,-529.87 0.74,-3.3 4,-5.39 7.3,-4.66 l 0.97,0.3"
         style="fill:#ffffff;fill-opacity:1;fill-rule:nonzero;stroke:none"
         id="path32" />
      <path
         d="m 3876.27,1888.08 c 0,0 -8.16,24.78 28.24,31.04 36.41,6.28 50.38,36.58 53.8,87.36 3.42,50.78 18.74,87.24 64.41,94.74 18.23,2.99 35.05,1.12 50.56,-0.74 23.32,-2.81 43.7,-5.62 61.52,8.1 29.67,22.86 106.33,78.11 170.2,52.96 63.87,-25.15 42.93,-79.68 9.72,-115.06 -33.22,-35.37 -42.85,-47.28 -17.43,-104.79 25.42,-57.5 6.91,-111.23 -51.85,-124.67 -58.75,-13.44 -91.59,-6.56 -92.51,-71.04 -0.81,-57.56 -12.53,-111.5 -72.68,-133.29 -47.31,-17.15 -98.94,-22.25 -148.7,-14.67 -15.85,2.41 -33.98,7.26 -45.64,19 -12.21,12.29 -9.64,25.94 -9.64,42 0,34.49 0,68.97 0,103.46 0,41.87 0,83.73 0,125.6"
         style="fill:#26b6a6;fill-opacity:1;fill-rule:nonzero;stroke:none"
         id="path34" />
      <path
         d="m 3976.86,1594.61 c -15.16,0 -30.32,1.13 -45.31,3.41 -15.85,2.41 -33.98,7.26 -45.64,19 -8.58,8.64 -9.86,17.95 -9.87,28.31 0,4.37 0.23,8.92 0.23,13.69 0,34.49 0,68.97 0,103.46 0,41.87 0,83.73 0,125.6 v 0 0 c 0,0 -0.78,2.36 -0.78,5.8 -0.01,7.73 3.86,20.91 29.02,25.24 36.41,6.28 50.38,36.58 53.8,87.36 3.42,50.78 18.74,87.24 64.41,94.74 6.93,1.13 13.66,1.57 20.19,1.57 10.64,0 20.75,-1.16 30.37,-2.31 9.61,-1.16 18.73,-2.32 27.36,-2.32 12.33,0 23.69,2.36 34.16,10.42 24.37,18.77 80.42,59.39 135.05,59.39 11.9,0 23.72,-1.93 35.15,-6.43 30.12,-11.86 41.38,-30.26 41.38,-50.11 0,-22.22 -14.12,-46.26 -31.66,-64.95 -20.37,-21.69 -31.87,-34.56 -31.86,-54.53 0.01,-12.6 4.59,-28.02 14.43,-50.26 7.45,-16.84 11.12,-33.37 11.12,-48.65 0,-36.87 -21.43,-66.52 -62.97,-76.02 -58.75,-13.44 -91.59,-6.56 -92.51,-71.04 -0.81,-57.56 -12.53,-111.5 -72.68,-133.29 -33.06,-11.99 -68.23,-18.08 -103.39,-18.08"
         style="fill:#1db3a0;fill-opacity:1;fill-rule:nonzero;stroke:none"
         id="path36" />
      <path
         d="m 3876.27,1622.52 c 2.1,0 4.06,1.33 4.77,3.44 106.96,317.56 349.01,445.83 351.44,447.08 2.47,1.28 3.45,4.33 2.16,6.8 -1.26,2.48 -4.31,3.47 -6.8,2.17 -2.47,-1.27 -248.05,-131.22 -356.36,-452.83 -0.89,-2.65 0.53,-5.5 3.17,-6.39 l 1.62,-0.27"
         style="fill:#ffffff;fill-opacity:1;fill-rule:nonzero;stroke:none"
         id="path38" />
      <path
         d="m 4029.69,1899.34 1.13,0.13 c 69.82,15.95 181.58,7.33 182.71,7.26 2.81,-0.22 5.21,1.84 5.43,4.62 0.22,2.78 -1.86,5.22 -4.63,5.44 -4.64,0.38 -114.44,8.82 -185.77,-7.48 -2.71,-0.62 -4.41,-3.32 -3.78,-6.04 0.52,-2.34 2.6,-3.93 4.91,-3.93"
         style="fill:#ffffff;fill-opacity:1;fill-rule:nonzero;stroke:none"
         id="path40" />
      <path
         d="m 3972.75,1746.71 c 31.92,0 65.78,2.08 67.91,2.22 2.79,0.18 4.9,2.58 4.73,5.36 -0.18,2.78 -2.55,5.03 -5.36,4.72 -0.78,-0.04 -78.8,-4.84 -109.23,-0.05 -2.77,0.41 -5.34,-1.45 -5.77,-4.2 -0.44,-2.75 1.44,-5.34 4.2,-5.78 10.8,-1.7 26.9,-2.27 43.52,-2.27"
         style="fill:#ffffff;fill-opacity:1;fill-rule:nonzero;stroke:none"
         id="path42" />
      <path
         d="m 4062.47,1936.64 0.28,0.01 c 2.79,0.16 4.93,2.54 4.77,5.32 -3.11,56.01 -21.69,104.31 -22.48,106.34 -1.01,2.6 -3.95,3.91 -6.53,2.88 -2.6,-1.01 -3.89,-3.94 -2.88,-6.54 0.19,-0.49 18.79,-48.88 21.81,-103.23 0.15,-2.69 2.37,-4.78 5.03,-4.78"
         style="fill:#ffffff;fill-opacity:1;fill-rule:nonzero;stroke:none"
         id="path44" />
      <path
         d="m 3874.36,1588.1 c 0,0 -66.13,-24.74 -155.13,-5.67 -89.02,19.06 -110.57,73.46 -110.57,73.46 0,0 63.38,65.94 119.52,69.64 0,0 -87.11,14.68 -168.61,-3.58 0,0 -51.52,18.98 -41.77,105.02 0,0 48.5,35.34 160.12,21.5 0,0 -55.94,39.47 -153.99,51.13 -7.72,-0.07 2.72,112.01 12.08,161.97 9.34,49.96 27.9,42.25 67.99,37.93 40.1,-4.31 166.25,-45.95 181.3,-74.72 15.05,-28.77 0.26,-101.6 0.26,-101.6 0,0 36.68,30.3 44.78,66.84 0,0 41.28,-1.69 76.64,-31.68 35.34,-29.99 25.08,-48.89 13.62,-78.6 -12.26,-31.79 -23.53,-51.68 -46.36,-83.78 0,0 37.62,13.53 73.3,103.1 0,0 36.98,-68.52 43.49,-117.67 6.51,-49.16 -40.07,-153.22 -116.67,-193.29"
         style="fill:#26b6a6;fill-opacity:1;fill-rule:nonzero;stroke:none"
         id="path46" />
      <path
         d="m 3872.54,1583.39 c -1.75,0.68 -3.06,2.31 -3.22,4.31 -13.46,166.74 -202.12,427.21 -285.51,479.51 -2.36,1.48 -3.08,4.61 -1.59,6.97 1.48,2.37 4.62,3.05 6.97,1.6 84.77,-53.16 276.53,-317.86 290.2,-487.26 0.23,-2.79 -1.84,-5.23 -4.62,-5.44 l -2.23,0.31"
         style="fill:#ffffff;fill-opacity:1;fill-rule:nonzero;stroke:none"
         id="path48" />
      <path
         d="m 874.684,756.34 c -8.454,0 -15.293,6.832 -15.293,15.289 v 983.031 c 0,8.45 6.839,15.3 15.293,15.3 8.453,0 15.289,-6.85 15.289,-15.3 V 771.629 c 0,-8.457 -6.836,-15.289 -15.289,-15.289"
         style="fill:#33535f;fill-opacity:1;fill-rule:nonzero;stroke:none"
         id="path50" />
      <path
         d="m 1482.9,1114.15 c -6.09,0 -11.85,3.66 -14.22,9.68 l -301.44,762.97 c -3.1,7.86 0.74,16.74 8.6,19.83 7.83,3.14 16.72,-0.73 19.83,-8.6 l 301.44,-762.98 c 3.11,-7.85 -0.74,-16.74 -8.6,-19.83 -1.84,-0.73 -3.74,-1.07 -5.61,-1.07"
         style="fill:#33535f;fill-opacity:1;fill-rule:nonzero;stroke:none"
         id="path52" />
      <path
         d="m 1446.68,1205.79 c -4.05,0 -8.1,1.61 -11.1,4.79 L 874.668,1804.14 314.773,1213.09 c -5.808,-6.15 -15.48,-6.41 -21.605,-0.58 -6.137,5.81 -6.395,15.48 -0.586,21.61 l 571.008,602.77 c 2.879,3.05 6.894,4.78 11.094,4.78 h 0.011 c 4.196,0 8.215,-1.73 11.098,-4.79 l 571.997,-605.3 c 5.81,-6.14 5.53,-15.81 -0.61,-21.61 -2.95,-2.79 -6.72,-4.18 -10.5,-4.18"
         style="fill:#33535f;fill-opacity:1;fill-rule:nonzero;stroke:none"
         id="path54" />
      <path
         d="m 266.48,1114.15 c -1.867,0 -3.777,0.34 -5.613,1.07 -7.855,3.09 -11.707,11.98 -8.601,19.83 l 301.445,762.98 c 3.105,7.87 11.988,11.74 19.828,8.6 7.852,-3.09 11.703,-11.97 8.602,-19.83 L 280.699,1123.83 c -2.375,-6.02 -8.125,-9.68 -14.219,-9.68"
         style="fill:#33535f;fill-opacity:1;fill-rule:nonzero;stroke:none"
         id="path56" />
      <path
         d="m 1462.12,1229.36 39.85,-105.17 0.36,-2.69 v -1.91 c -0.36,-2.15 -3.08,-4.9 -6,-6.64 -6.7,-3.88 -17.57,-3.88 -24.26,0 -2.45,1.44 -4,3.17 -4.72,4.96 l -0.06,0.18 -0.3,1.44 -36.95,98.59 32.08,11.24"
         style="fill:#26b6a6;fill-opacity:1;fill-rule:nonzero;stroke:none"
         id="path58" />
      <path
         d="m 287.262,1229.36 -39.856,-105.17 -0.359,-2.69 v -1.91 c 0.359,-2.15 3.074,-4.9 6.004,-6.64 6.691,-3.88 17.562,-3.88 24.258,0 2.449,1.44 4.004,3.17 4.722,4.96 l 0.059,0.18 0.297,1.44 36.949,98.59 -32.074,11.24"
         style="fill:#26b6a6;fill-opacity:1;fill-rule:nonzero;stroke:none"
         id="path60" />
      <path
         d="m 892.313,847.742 0.007,-87.004 c 0,-2.597 -1.722,-5.207 -5.168,-7.199 -6.882,-3.969 -18.047,-3.969 -24.929,0 -3.438,1.992 -5.164,4.602 -5.164,7.199 v 87.004 c 11.754,5.887 23.504,5.887 35.254,0"
         style="fill:#26b6a6;fill-opacity:1;fill-rule:nonzero;stroke:none"
         id="path62" />
      <path
         d="m 1501.53,1898.02 c -0.06,25.09 -22.03,51.85 -68.53,82.02 -85.94,55.75 -277.93,167.65 -398.16,234.28 l -1,0.98 c -92.531,56.16 -178.824,323.56 -242.863,526.77 -21.825,69.25 -48.559,108.46 -80.25,126.86 -7.52,4.38 -35.239,19.64 -41.442,23.36 -62.824,37.65 -145.297,-7.58 -248.023,-63.8 -94.637,-51.8 -168.559,-118.1 -183.43,-294.02 -9.059,-107.12 -0.437,-311.83 21.316,-466.96 l -0.054,0.14 c 31.496,-259.17 70.164,-259.63 126.293,-302.99 96.609,-74.63 314.203,-179.56 405.879,-215.62 166.332,-65.43 302.244,35.45 403.544,85.48 101.3,50.03 225.82,128.07 268.46,159.04 25.36,18.41 38.47,37.02 38.2,56.65 -0.1,7.79 0.07,39.69 0.06,47.81"
         style="fill:#17282f;fill-opacity:1;fill-rule:nonzero;stroke:none"
         id="path64" />
      <path
         d="m 1194.81,1682.73 c 101.3,50.04 225.82,128.08 268.46,159.05 57.64,41.85 52.33,84.67 -30.27,138.26 -61.57,39.95 -58.38,43.46 -522.359,298.5 0,0 -591.43,-349.03 -565.993,-413.48 25.446,-64.45 331.29,-222.44 446.618,-267.8 166.328,-65.43 302.244,35.44 403.544,85.47"
         style="fill:#273e47;fill-opacity:1;fill-rule:nonzero;stroke:none"
         id="path66" />
      <path
         d="m 707.047,2871.05 c -62.258,32.67 -143.16,-11.75 -243.238,-66.58 -64.106,-35.14 -118.731,-76.78 -151.918,-154.7 l -42.258,24.43 c 33.187,77.61 87.711,119.24 151.613,154.29 102.754,56.27 185.203,101.41 248.074,63.79 5.465,-3.19 27.317,-15.36 37.727,-21.23"
         style="fill:#33535f;fill-opacity:1;fill-rule:nonzero;stroke:none"
         id="path68" />
      <path
         d="m 463.773,2804.44 c 153.758,84.15 262.184,143.94 327.2,-62.37 64.043,-203.21 150.336,-470.61 242.867,-526.77 0,0 -29.97,25.37 -260.086,-148.51 -73.219,-55.33 -162.07,-100.66 -220.445,-135.45 -114.368,-68.17 -183.692,-95.46 -194.653,-86.37 -60.453,50.12 -93.183,489.52 -78.308,665.45 14.871,175.92 88.793,242.22 183.425,294.02"
         style="fill:#273e47;fill-opacity:1;fill-rule:nonzero;stroke:none"
         id="path70" />
      <path
         d="m 1025.94,2215.03 c -0.82,0.45 -1.63,0.9 -2.45,1.36 1.45,0.15 2.7,0.21 3.8,0.21 3.58,0 5.39,-0.66 6.13,-1.04 0.14,-0.09 0.28,-0.17 0.42,-0.26 v 0 c -0.08,0 -2.78,0 -7.9,-0.27"
         style="fill:#263d46;fill-opacity:1;fill-rule:nonzero;stroke:none"
         id="path72" />
      <path
         d="m 1011.56,2213.98 c 4.95,1.37 8.86,2.09 11.93,2.41 0.82,-0.46 1.63,-0.91 2.45,-1.36 -3.61,-0.19 -8.42,-0.51 -14.38,-1.05"
         style="fill:#2c4954;fill-opacity:1;fill-rule:nonzero;stroke:none"
         id="path74" />
      <path
         d="m 359.875,1844.51 c -0.441,0 -0.844,0.15 -1.219,0.46 v 0 c -50.683,42.02 -81.879,357.66 -81.875,562.26 0,39.44 1.16,74.76 3.567,103.19 14.871,175.92 88.793,242.22 183.425,294.02 76.532,41.88 141.844,77.74 196.153,77.74 54.797,0 98.39,-36.49 131.047,-140.11 63.945,-202.9 150.074,-469.8 242.447,-526.51 -0.74,0.38 -2.55,1.04 -6.13,1.04 -1.1,0 -2.35,-0.06 -3.8,-0.21 -3.07,-0.32 -6.98,-1.04 -11.93,-2.41 C 960.285,2209.29 824.395,2188 645.227,2091.25 414.309,1966.56 372.352,1844.51 359.875,1844.51"
         style="fill:#2c4954;fill-opacity:1;fill-rule:nonzero;stroke:none"
         id="path76" />
      <path
         d="m 3407.43,3297.39 c 40.72,9.1 76.68,17.64 104.26,24.69 146.83,37.5 190.95,86.1 195.51,151.03 7.27,103.6 -31.52,104.41 -98.45,58.1 -49.39,-34.16 -90.42,-46.7 -90.42,-46.7 15.38,20.34 22.53,29.5 27.65,42.47 10.14,25.79 -3.58,42.37 -12.52,46.74 -6.96,3.41 -14.03,-14.52 -38.31,-34.29 -31.13,-25.34 -56.35,-30.19 -82.22,-65.3 -9.69,-13.16 -24.12,-21.9 -40.06,-25.53 -14.57,-3.25 -254.33,-68.92 -366.57,-88.15 -65.96,83.87 -127.15,173.39 -196.79,262.5 -107.32,137.35 -158.33,156.6 -218.56,145.62 l -52.27,-172.36 c 0,0 353.42,-416.18 357.58,-421.38 27.25,-34.06 65.27,-46.36 107.13,-34.09 152.34,44.65 313.4,114.81 404.04,156.65"
         style="fill:#f6879f;fill-opacity:1;fill-rule:nonzero;stroke:none"
         id="path78" />
      <path
         d="m 2577.03,3803.35 c 125.46,-5.5 162.69,-75.86 227.01,-153.87 64.33,-78.01 204.67,-278.19 204.67,-278.19 l 342.31,71.66 c 0,0 -14.18,-98.35 30.16,-157.56 0,0 -181.6,-91.55 -291.56,-133.72 -139.04,-53.31 -148.15,-41.16 -173.28,-18.11 -23.95,21.95 -330.19,368.1 -330.19,368.1 l -9.12,301.69"
         style="fill:#273e47;fill-opacity:1;fill-rule:nonzero;stroke:none"
         id="path80" />
      <path
         d="m 1162.06,3571.37 c 32.56,98.63 68.39,102.73 112.75,34.5 32.74,-50.34 65.96,-77.51 65.96,-77.51 -6.52,24.65 -9.66,35.84 -9.47,49.78 0.39,27.72 19.37,37.84 29.31,38.5 7.72,0.52 7.47,-18.75 22.44,-46.26 19.19,-35.25 40.69,-49.31 51.31,-91.6 3.97,-15.85 14.38,-47.49 27.75,-56.89 67.93,-47.73 191.58,-106.69 314.43,-154.13 43.64,92.02 101.12,206.93 144.98,287.43 83.4,153.05 138.54,170.46 199.29,162.87 l 61.82,-169.18 c 0,0 -329.62,-435.27 -333.48,-440.7 -25.3,-35.52 -77.02,-60.04 -117.38,-43.49 -115.06,47.19 -200.6,130.37 -298.25,196.66 -58.04,39.41 -112.8,70.08 -147.84,96.12 -121.64,90.39 -144.02,152.09 -123.62,213.9"
         style="fill:#f6879f;fill-opacity:1;fill-rule:nonzero;stroke:none"
         id="path82" />
      <path
         d="m 2040.94,1668.51 c 2.7,130.03 41.85,226.46 44.91,262.56 0,0 -9.58,773.37 -9.58,898.81 l 659.46,26.89 c 0,0 -9.21,-775.3 -9.21,-882.77 0,-107.46 -16.11,-564.41 -33.13,-774.71 h -0.02 l -1.91,-69.18 -147.16,-45.76 c 0,0 2.74,20.22 0,118.39 -2.75,98.18 -68.93,438.16 -75.07,524.5 -7.94,111.63 9.78,156.74 7.69,231.39 -2.09,74.65 -46.27,562.81 -46.27,562.81 0,0 -82.6,-479.63 -103.15,-642.52 -23.53,-186.64 -99.1,-675.71 -99.29,-789.42 0,-20.36 0.06,-43.96 0.19,-69.53 0.33,-61.521 -1.72,-77.79 8.14,-101.56 17.28,-41.64 -130.16,-67.781 -137,-38.211 l -15.84,122.241 v 3.52 0.02 0.01 77.5 c 0,115.86 -46.67,396.46 -42.76,585.02"
         style="fill:#f6879f;fill-opacity:1;fill-rule:nonzero;stroke:none"
         id="path84" />
      <path
         d="m 2979.42,937.082 c 4.28,-8.961 3.04,-25.762 -2.04,-36.41 -5.09,-10.652 -60.74,-42.031 -135.8,-36.973 -75.06,5.063 -126.6,35.301 -155.22,54.25 -28.62,18.949 -58.41,22.492 -95.58,24.621 -37.17,2.129 -85.98,20.66 -94.13,38.039 -8.15,17.391 1.23,47.331 1.23,47.331 l 481.54,-90.858"
         style="fill:#273e47;fill-opacity:1;fill-rule:nonzero;stroke:none"
         id="path86" />
      <path
         d="m 2676.51,1171.35 c 1.96,0.42 3.93,0.83 5.94,1.23 3.26,0.65 6.66,1.3 9.89,0.53 3.69,-0.87 6.71,-3.47 9.27,-6.25 8.08,-8.77 12.95,-19.94 19.18,-30.1 15.73,-25.67 48.76,-46.92 84.84,-66.32 24.52,-13.18 48.54,-23.4 73.85,-34.79 25.83,-11.61 60.11,-18.71 80.31,-32.33 29.47,-19.851 33.27,-69.738 -0.29,-89.429 -28.95,-16.993 -105.12,-35.411 -185.02,-12.782 -43.51,12.332 -91.82,58.832 -148.94,63.301 -36.33,2.84 -105.02,13.051 -128.41,40.63 -8.64,12.23 2.9,51.02 12.37,84.5 10.34,36.54 22.69,93.8 34.8,90.58 0.5,-7.18 -0.89,-9 3.82,-13.88 4.48,-4.62 10.51,-7.58 15.39,-11.74 8.98,-7.67 14.5,-18.51 20.09,-28.91 2.43,-4.5 5.3,-9.3 10.32,-11.18 6.12,-2.3 10.7,1.56 16.06,4.03 6.74,3.09 14.6,3.65 21.71,1.55 -0.7,7.23 -1.98,14.41 -3.83,21.44 -0.59,2.27 -1.25,4.68 -0.54,6.92 0.73,2.26 2.71,3.86 4.65,5.22 14.01,9.82 28.48,14.32 44.54,17.78"
         style="fill:#33535f;fill-opacity:1;fill-rule:nonzero;stroke:none"
         id="path88" />
      <path
         d="m 2379.54,724.398 c 4.44,-4.168 3.11,-32.75 -1.8,-40.437 -5.26,-8.25 -35.44,-33.992 -90.03,-37.91 -52.15,-3.731 -98.73,3.308 -129.34,22.75 -30.62,19.437 -45.45,40.89 -48.33,70.59 -2.88,29.718 0.42,58.379 -13.74,81.25 -13.08,21.121 -33.92,44.918 -38.46,56.371 -9.87,24.898 -0.35,60.508 -0.35,60.508 l 322.05,-213.122"
         style="fill:#273e47;fill-opacity:1;fill-rule:nonzero;stroke:none"
         id="path90" />
      <path
         d="m 2236.78,983.789 c 0.37,-11.539 2.4,-22.059 6.02,-33.078 7.56,-23.039 19.05,-44.723 31.94,-65.352 6.64,-10.621 13.66,-21.058 21.75,-30.679 15.78,-18.782 35.37,-34.188 52.07,-52.2 16.7,-18 30.89,-39.832 32.2,-64.019 2.23,-40.91 -42.18,-54.813 -76.36,-60.902 -36.49,-6.489 -75.46,-4.539 -111.08,5.582 -39.64,11.269 -68.24,41.968 -74.82,81.519 -1.89,11.36 -1.19,22.969 -2.53,34.399 -3.07,26.07 -16.57,49.89 -31.82,71.57 -8.85,12.582 -18.47,24.863 -24.4,38.953 -10.67,25.328 -2.12,53.816 4.69,79.039 5.9,21.779 12.56,46.429 20.23,44.379 0.09,-11.29 -0.04,-12.46 8.06,-20.12 10.25,-9.69 10.7,-24.251 21.53,-32.81 -5.08,13.262 -5.4,18.899 -7.6,29.09 -0.66,3.06 0.17,9.24 2.3,11.58 2.88,3.13 7.77,5.08 12.56,6.71 16.09,5.44 32.78,9.22 49.68,11.3 15.44,1.9 33.17,3.78 48.48,0.36 4.7,-1.06 9.28,-3.31 12.19,-7.05 3.05,-3.95 3.61,-7.45 4.35,-13.98 0.73,-6.54 0.22,-23.432 0.56,-34.291"
         style="fill:#33535f;fill-opacity:1;fill-rule:nonzero;stroke:none"
         id="path92" />
      <path
         d="m 2280.25,876.781 c -15.23,11.41 -49.37,11.559 -68.03,9.559 -23.37,-2.5 -42.29,-10.699 -53.05,-18.621 -4.76,-3.508 -11.42,-2.899 -15.62,1.23 -5.04,4.992 -4.58,13.172 1.16,17.391 11.39,8.379 32,20.172 59.69,22.121 45.93,3.23 59.41,-4.641 59.41,-4.641 0,0 20.95,-13.48 16.44,-27.039"
         style="fill:#f3f2f1;fill-opacity:1;fill-rule:nonzero;stroke:none"
         id="path94" />
      <path
         d="m 2315.28,834.859 c -19.15,11.332 -56.69,9.7 -75.36,7.692 -23.37,-2.5 -40.84,-11.699 -51.59,-19.621 -4.77,-3.508 -11.43,-2.899 -15.62,1.242 -5.04,4.976 -4.58,13.16 1.15,17.379 11.39,8.379 33.29,21.929 60.99,23.879 45.93,3.23 57.89,-6.149 57.89,-6.149 0,0 19.37,-7.5 22.54,-24.422"
         style="fill:#f3f2f1;fill-opacity:1;fill-rule:nonzero;stroke:none"
         id="path96" />
      <path
         d="m 2186.12,952.422 c 31.74,3.269 45.19,-0.281 57.74,-4.852 8.09,-4.531 13.42,-17.32 8.21,-20.55 -10.22,5.671 -28.63,8.031 -51.18,7.019 -15.14,-0.668 -34.2,-6.789 -49.67,-13.641 -3.93,-1.738 -8.58,-4.187 -12.65,-6.449 -5.49,-3.039 -12.48,-0.867 -15.11,4.699 -2.23,4.731 -0.57,10.372 3.98,13.133 11.1,6.719 33.03,17.989 58.68,20.641"
         style="fill:#f3f2f1;fill-opacity:1;fill-rule:nonzero;stroke:none"
         id="path98" />
      <path
         d="m 2771.7,1090.2 c 0,0 -5.23,13.94 -26.83,17.95 -16.53,3.08 -45.72,-9.1 -63.87,-24.05 -7.43,-6.12 -6.46,-17.74 1.96,-22.39 5.02,-2.77 11.16,-2.05 15.48,1.71 11.89,10.35 38.57,29.17 73.26,26.78"
         style="fill:#f3f2f1;fill-opacity:1;fill-rule:nonzero;stroke:none"
         id="path100" />
      <path
         d="m 2822.93,1061.51 c 0,0 -10.68,16.7 -31.8,16.38 0,0 -43.15,-1.24 -69.87,-26.15 -6.82,-6.35 -6.35,-17.17 1.83,-21.65 4.85,-2.66 10.77,-1.96 14.9,1.74 12.04,10.74 36.16,33.33 84.94,29.68"
         style="fill:#f3f2f1;fill-opacity:1;fill-rule:nonzero;stroke:none"
         id="path102" />
      <path
         d="m 2879.48,1035.65 c 0,0 -11.89,15.11 -33.01,14.79 0,0 -40.21,-1.5 -66.92,-26.4 -6.82,-6.35 -6.35,-17.17 1.82,-21.65 4.85,-2.671 10.78,-1.97 14.91,1.73 12.03,10.74 34.43,35.18 83.2,31.53"
         style="fill:#f3f2f1;fill-opacity:1;fill-rule:nonzero;stroke:none"
         id="path104" />
      <path
         d="m 2735.73,2856.77 c 0,0 8.8,-546.24 9.75,-642.21 0.95,-95.98 0,-280 0,-373.9 0,0 -24.31,-41 -162.88,-40.87 -138.57,0.13 -158.6,38.4 -158.6,38.4 l -20.48,441.62 -38.21,-458.69 c 0,0 -79.57,-61.75 -193.7,-37.15 -114.14,24.6 -130.9,58.6 -130.9,58.6 l 22.43,1012.12 672.59,2.08"
         style="fill:#273e47;fill-opacity:1;fill-rule:nonzero;stroke:none"
         id="path106" />
      <path
         d="m 2403.52,2279.81 20.36,185.44 c 0,0 95.11,23.16 158.73,71.03 0,0 -33.66,-41.69 -72.26,-63.31 -38.6,-21.61 -57.14,-30.57 -57.14,-30.57 l -27.79,-179.43 -4.89,-349.72 -17.01,366.56"
         style="fill:#17282f;fill-opacity:1;fill-rule:nonzero;stroke:none"
         id="path108" />
      <path
         d="m 2054.71,2762.1 c 90.51,-65.93 500.73,-138.97 691.13,0 0,0 -4.4,531.85 -19.33,813.33 -0.7,12.79 -1.55,25.16 -2.83,37.23 -0.43,3.98 -0.99,7.96 -1.42,11.93 -2.28,17.48 -5.41,34.11 -9.66,49.88 -0.72,2.7 -1.57,5.41 -2.42,8.1 -1.85,6.11 -3.84,12.08 -6.25,17.9 -1.28,3.13 -2.56,6.26 -3.98,9.24 -1.28,2.84 -2.56,5.68 -4.12,8.39 l -0.71,1.56 c -1.43,2.7 -2.99,5.39 -4.55,7.95 -1.7,2.84 -3.41,5.69 -5.4,8.53 -1.85,2.56 -3.7,5.25 -5.54,7.67 -2.13,2.7 -4.41,5.4 -6.82,7.96 -2.14,2.55 -4.55,4.97 -6.97,7.25 -1.55,1.56 -3.26,3.12 -4.97,4.69 -1.56,1.42 -3.26,2.84 -4.97,4.12 -2.13,1.84 -4.55,3.55 -6.82,5.25 -7.39,5.26 -15.35,9.95 -24.01,14.21 -2.28,1.14 -4.7,2.27 -7.11,3.27 l -1.71,0.71 c -2.83,1.14 -5.67,2.27 -8.52,3.27 -4.69,1.85 -9.66,3.41 -14.78,4.83 -5.12,1.42 -10.37,2.7 -15.92,3.98 -6.1,0.28 -12.92,0.42 -20.31,0.42 -4.69,0 -9.81,-0.14 -15.06,-0.28 -5.26,-0.14 -10.66,-0.28 -16.2,-0.56 -71.19,-3.13 -173.35,-14.64 -255.34,-25.16 -5.4,-0.71 -10.8,-1.42 -16.06,-2.13 -4.83,-0.57 -9.52,-1.14 -14.07,-1.71 -56.26,-7.38 -98.04,-13.49 -104.43,-14.49 l -0.85,-0.14 c -18.48,-4.69 -35.53,-9.09 -49.31,-13.21 -37.66,-11.09 -9.66,-1.57 -17.91,-37.94 -24.29,-106.86 3.98,-495.34 3.98,-495.34 l -16.76,-450.71"
         style="fill:#33535f;fill-opacity:1;fill-rule:nonzero;stroke:none"
         id="path110" />
      <path
         d="m 2218.59,4095.49 c 0,0 29.25,-137.45 40.99,-160.04 11.73,-22.58 35.97,-29 35.97,-29 l -2.04,96.69 -74.92,92.35"
         style="fill:#17282f;fill-opacity:1;fill-rule:nonzero;stroke:none"
         id="path112" />
      <path
         d="m 2255.31,4292.4 c 0,0 -31.51,5.4 -56.08,-19.72 -24.08,-24.63 -10.63,-101.7 19.36,-177.19 l 55.11,-6.33 -18.39,203.24"
         style="fill:#17282f;fill-opacity:1;fill-rule:nonzero;stroke:none"
         id="path114" />
      <path
         d="m 2290.22,4089.12 c -11.05,-6.6 -26.81,14.62 -40.44,28.88 -13.62,14.26 -58.11,33.74 -80.31,-13.02 -22.6,-47.65 19.6,-110.61 54.62,-121.61 60.36,-18.95 69.42,19.77 69.42,19.77 l 4.04,-221.96 c 63.25,-114.42 277.12,-55.83 196.94,19.99 l -0.16,56.38 c 0,0 64.35,-4.12 91.03,0 44.4,6.86 62.65,37.59 76.11,85.64 21.63,77.18 29.84,139.49 11.49,291.27 -20.11,166.36 -213.6,168.09 -318.1,102.33 -104.48,-65.77 -64.64,-247.67 -64.64,-247.67"
         style="fill:#f6879f;fill-opacity:1;fill-rule:nonzero;stroke:none"
         id="path116" />
      <path
         d="m 2264.38,4383.36 c 35.82,16.79 75.26,25.89 114.13,34.32 84.38,18.32 170.35,35.2 247.42,74.15 9.5,4.81 19.65,10.09 30.2,8.7 20.33,-2.67 29.23,-27.29 30.04,-47.76 0.74,-18.97 -1.75,-38.06 -7.34,-56.19 10.94,13.01 33.27,11.21 45.39,-0.71 12.13,-11.91 15.36,-30.54 13.14,-47.39 -4.97,-37.78 -33.92,-69.24 -68.13,-86.03 -34.2,-16.79 -73.16,-20.99 -111.25,-22.09 -53.21,-1.53 -106.56,2.49 -158.94,11.99 -12.71,2.31 -25.72,4.95 -38.46,2.79 -12.75,-2.16 -25.4,-10.33 -28.74,-22.82 -5.6,-20.99 -11.43,-163.9 -40.8,-164.49 -5.48,-0.12 -26.29,35.87 -39.84,48.71 -17.03,16.15 -34.17,138.54 -37.21,161.16 -0.25,1.85 -1.27,3.29 -2.35,4.81 -19.2,26.89 3.34,72.22 27.04,86.95 8.31,5.17 16.89,9.77 25.7,13.9"
         style="fill:#17282f;fill-opacity:1;fill-rule:nonzero;stroke:none"
         id="path118" />
      <path
         d="m 2222.28,4280.58 c -14.42,-16.92 -39.82,-18.95 -56.74,-4.54 -16.92,14.42 -18.95,39.82 -4.53,56.75 l 61.27,-52.21"
         style="fill:#17282f;fill-opacity:1;fill-rule:nonzero;stroke:none"
         id="path120" />
      <path
         d="m 2494.33,3857.55 c 0,0 -99.1,9.52 -133.73,27.94 -23.19,12.33 -42.28,33.69 -47.89,47.38 0,0 6.49,-29.4 27.2,-55.88 25.34,-32.39 154.42,-56.24 154.42,-56.24 v 36.8"
         style="fill:#f47089;fill-opacity:1;fill-rule:nonzero;stroke:none"
         id="path122" />
      <path
         d="m 2470.51,4113.89 c 0,-11.39 -8.89,-20.61 -19.86,-20.58 -10.96,0.03 -19.85,9.29 -19.85,20.69 0,11.39 8.89,20.61 19.85,20.57 10.97,-0.03 19.86,-9.29 19.86,-20.68"
         style="fill:#17282f;fill-opacity:1;fill-rule:nonzero;stroke:none"
         id="path124" />
      <path
         d="m 2449.45,4188.86 -42.48,-23.45 c -6.26,12.21 -1.83,27.35 9.9,33.82 11.73,6.48 26.32,1.83 32.58,-10.37"
         style="fill:#17282f;fill-opacity:1;fill-rule:nonzero;stroke:none"
         id="path126" />
      <path
         d="m 2485.35,3976.72 45.33,-17.01 c -4.49,-12.99 -18.27,-19.71 -30.79,-15.02 -12.52,4.7 -19.03,19.04 -14.54,32.03"
         style="fill:#f47089;fill-opacity:1;fill-rule:nonzero;stroke:none"
         id="path128" />
      <path
         d="m 2647.58,4172.32 -38.73,29.84 c 7.9,11.09 22.98,13.4 33.67,5.16 10.69,-8.23 12.96,-23.9 5.06,-35"
         style="fill:#17282f;fill-opacity:1;fill-rule:nonzero;stroke:none"
         id="path130" />
      <path
         d="m 2635.65,4119.54 c 0,-11.39 -8.88,-20.61 -19.86,-20.58 -10.96,0.04 -19.85,9.3 -19.85,20.69 0,11.39 8.89,20.61 19.85,20.58 10.98,-0.03 19.86,-9.29 19.86,-20.69"
         style="fill:#17282f;fill-opacity:1;fill-rule:nonzero;stroke:none"
         id="path132" />
      <path
         d="m 2550.93,4133.71 6.52,-119.41 62.34,21.25 -68.86,98.16"
         style="fill:#f47089;fill-opacity:1;fill-rule:nonzero;stroke:none"
         id="path134" />
      <path
         d="m 2142.35,3759.44 c -146.5,-2.31 -184.51,-88.64 -227.62,-180.09 -42.52,-90.21 -152.82,-298.07 -152.82,-298.07 l -275.83,124.74 c 0,0 -19.87,-74.57 -92.65,-118.32 0,0 130.26,-109.32 242.16,-189.34 94.93,-67.89 150.09,-103.03 186.46,-78.75 27.01,18.04 296.28,369.86 296.28,369.86 68.51,107.28 83.17,288.91 24.02,369.97"
         style="fill:#273e47;fill-opacity:1;fill-rule:nonzero;stroke:none"
         id="path136" />
      <path
         d="m 2608.85,4065.56 -15.72,8 -15.33,21.98 c 0,0 8.52,3.8 15.52,-1.15 7,-4.95 15.53,-28.83 15.53,-28.83"
         style="fill:#26b6a6;fill-opacity:1;fill-rule:nonzero;stroke:none"
         id="path138" />
      <path
         d="m 2608.85,4065.56 -15.72,8 -15.33,21.98 v 0 c 0.1,0.01 0.19,0.03 0.28,0.05 0.9,0.14 1.82,0.21 2.74,0.21 6.44,0 13.07,-3.41 16.34,-8.54 0.01,-0.01 0.02,-0.03 0.03,-0.04 0.01,-0.01 0.02,-0.02 0.02,-0.04 0.26,-0.41 0.5,-0.84 0.72,-1.28 v 0 l 8.45,-17.35 v 0 c 0.51,-1.04 1.31,-2.01 2.37,-2.9 0.03,-0.03 0.07,-0.06 0.1,-0.09"
         style="fill:#0a483f;fill-opacity:1;fill-rule:nonzero;stroke:none"
         id="path140" />
      <path
         d="m 2755.08,4134.18 c -0.75,-32.33 -27.62,-63.16 -58.88,-68.73 l -24.74,-4.28 c -11.56,-2.03 -22.9,-2.89 -32.75,-2.57 -1.06,0 -2.14,0 -3.32,0.11 -1.82,0 -3.63,0.22 -5.35,0.33 -3.32,0.31 -6.32,0.85 -9.1,1.49 -1.6,0.32 -3.21,0.75 -4.6,1.29 -1.51,0.42 -2.79,0.96 -3.97,1.6 l -1.6,0.86 -1.92,1.28 c -1.08,0.96 -1.94,1.92 -2.47,2.99 l -8.45,17.35 c -3.32,6.74 -12.31,11.03 -20.13,9.64 l -17.66,-3.11 c -7.82,-1.39 -16.81,-8.89 -20.13,-16.7 0,0 -3.75,-9.21 -8.46,-20.44 -4.7,-11.25 -33.83,-24.84 -65.09,-30.3 l -24.72,-4.39 c -5.25,-0.86 -10.28,-1.07 -15.1,-0.54 -2.89,0.22 -5.57,0.75 -8.24,1.5 -1.28,0.32 -2.57,0.75 -3.85,1.18 l -2.36,0.97 c -2.14,0.85 -4.28,1.92 -6.2,3.1 -6.75,2.67 -114.45,46.46 -129.22,81.78 -23.55,56.85 73.33,115.3 108.23,126.43 v -0.1 c 4.06,1.6 8.13,2.89 12.42,3.63 l 254.46,44.86 c 13.7,2.47 26.55,-0.32 36.71,-6.85 6.54,-4.18 30.51,-18.31 40.47,-24.31 l 2.57,-1.49 c 1.4,-0.86 2.78,-1.82 4.18,-2.78 l 1.28,-1.07 c 1.4,-1.07 2.68,-2.25 3.96,-3.53 1.61,-1.61 3,-3.22 4.28,-5.04 1.08,-1.29 1.94,-2.68 2.68,-4.07 1.29,-1.93 2.25,-4.06 3.21,-6.2 0.75,-1.82 1.4,-3.75 1.93,-5.68 v -0.21 c 0.53,-1.72 0.96,-3.54 1.18,-5.46 l 0.21,-1.29 c 0.32,-2.03 0.54,-4.18 0.54,-6.31 0.63,-24.94 0.63,-49.89 0,-74.94"
         style="fill:#26b6a6;fill-opacity:1;fill-rule:nonzero;stroke:none"
         id="path142" />
      <path
         d="m 2405.99,4026.81 c -4.97,1.97 -64.57,26.19 -101.61,52.91 -13.31,9.61 -23.7,19.54 -27.61,28.87 -2.51,6.05 -3.65,12.12 -3.65,18.15 0.02,50.6 80.69,98.33 111.88,108.28 v 0 c -17.24,-5.56 -49.46,-22.58 -74.94,-45.17 v 0 0 l 72.95,-42.14 c -0.14,-1.44 -0.22,-2.88 -0.26,-4.32 -0.26,-12.53 -0.4,-25.03 -0.4,-37.51 0,-12.49 0.14,-24.96 0.4,-37.43 v 0 c 0.22,-9.2 2.59,-17.51 6.62,-24.57 v 0 c 4.05,-7.08 9.75,-12.89 16.62,-17.07 v 0 m 292.83,230.57 c 2.36,0.3 4.7,0.45 7,0.46 -2.25,-0.01 -4.55,-0.15 -6.87,-0.45 -0.05,-0.01 -0.09,-0.01 -0.13,-0.01 m 7.08,0.46 c -0.02,0 -0.04,0 -0.05,0 v 0 c 0.01,0 0.03,0 0.05,0"
         style="fill:#14b099;fill-opacity:1;fill-rule:nonzero;stroke:none"
         id="path144" />
      <path
         d="m 2729.06,4252.25 c -9.53,4.93 -20.88,6.86 -32.86,4.72 l -254.46,-44.86 c -29.87,-5.35 -55.77,-33.72 -58.66,-64.44 l -73.02,42.18 c 25.48,22.59 57.7,39.61 74.94,45.17 v -0.1 c 4.06,1.6 8.13,2.89 12.42,3.63 l 254.46,44.86 c 13.7,2.47 26.55,-0.32 36.71,-6.85 6.54,-4.18 30.51,-18.31 40.47,-24.31"
         style="fill:#26b6a6;fill-opacity:1;fill-rule:nonzero;stroke:none"
         id="path146" />
      <path
         d="m 2383.01,4147.71 -72.95,42.14 c 25.48,22.59 57.7,39.61 74.94,45.17 v -0.1 0 c 4.06,1.6 8.13,2.89 12.42,3.63 l 254.46,44.86 c 3.33,0.6 6.61,0.89 9.81,0.89 9.98,0 19.21,-2.8 26.9,-7.74 6.42,-4.1 29.64,-17.79 39.91,-23.97 -4.13,2.07 -8.61,3.55 -13.33,4.4 -3,0.55 -6.1,0.84 -9.27,0.85 -0.02,0 -0.04,0 -0.05,0 v 0 0 c -0.01,0 -0.02,0 -0.03,0 -2.3,-0.01 -4.64,-0.16 -7,-0.46 -0.87,-0.12 -1.74,-0.25 -2.62,-0.41 v 0 0 l -5.8,-1.02 v 0 l -31.06,-5.48 -217.6,-38.36 v 0 c -29.86,-5.31 -55.82,-33.69 -58.73,-64.4"
         style="fill:#52c5b8;fill-opacity:1;fill-rule:nonzero;stroke:none"
         id="path148" />
      <path
         d="m 2755.11,4209.08 c 0.58,-24.88 0.58,-49.87 0.01,-74.94 -0.75,-32.32 -27.72,-63.14 -58.95,-68.64 l -24.72,-4.37 c -31.24,-5.5 -60.38,-2.17 -65.07,7.42 l -8.45,17.35 c -3.29,6.72 -12.33,11.05 -20.15,9.67 l -17.66,-3.11 c -7.81,-1.38 -16.8,-8.89 -20.1,-16.77 0,0 -3.81,-9.11 -8.51,-20.36 -4.69,-11.25 -33.82,-24.83 -65.05,-30.34 l -24.72,-4.36 c -31.23,-5.51 -58.2,15.79 -58.95,47.85 -0.57,24.88 -0.57,49.87 0,74.95 0.75,32.33 27.72,63.14 58.95,68.64 l 254.43,44.87 c 31.23,5.51 58.19,-15.8 58.94,-47.86"
         style="fill:#26b6a6;fill-opacity:1;fill-rule:nonzero;stroke:none"
         id="path150" />
      <path
         d="m 2405.99,4026.81 c -6.87,4.18 -12.57,9.99 -16.61,17.07 h -0.01 c 4.05,-7.08 9.75,-12.89 16.62,-17.07 M 2715.14,4257 c -0.02,0 -0.05,0.01 -0.07,0.01 -2.99,0.54 -6.07,0.82 -9.22,0.82 -2.27,0 -4.57,-0.14 -6.9,-0.44 2.32,0.3 4.62,0.44 6.87,0.45 0.01,0 0.02,0 0.03,0 0.01,0 0.03,0 0.05,0 3.16,-0.01 6.25,-0.29 9.24,-0.84"
         style="fill:#6ecdbc;fill-opacity:1;fill-rule:nonzero;stroke:none"
         id="path152" />
      <path
         d="m 2715.17,4256.99 c -0.01,0.01 -0.02,0.01 -0.03,0.01 -2.99,0.55 -6.08,0.83 -9.24,0.84 3.17,-0.01 6.27,-0.3 9.27,-0.85 m -9.35,0.85 c 0.01,0 0.02,0 0.03,0 v 0 c -0.01,0 -0.02,0 -0.03,0"
         style="fill:#9adcd2;fill-opacity:1;fill-rule:nonzero;stroke:none"
         id="path154" />
      <path
         d="m 2577.8,4095.54 c 0.1,0.01 0.19,0.03 0.28,0.05 -0.09,-0.02 -0.18,-0.04 -0.28,-0.05"
         style="fill:#6ecdbc;fill-opacity:1;fill-rule:nonzero;stroke:none"
         id="path156" />
      <path
         d="m 2416.11,4027.88 -0.73,0.3 -1.2,0.49 c -1.87,0.75 -3.73,1.69 -5.41,2.71 -6.67,4.07 -11.92,9.71 -15.45,16.44 l 182.48,182.49 51.9,9.15 -211.59,-211.58 m 48.42,2.2 219.27,219.27 13.34,2.35 c 2.91,0.52 5.84,0.78 8.71,0.78 7.38,0 14.37,-1.68 20.81,-5 l 2.17,-1.28 c 1.1,-0.68 2.2,-1.43 3.21,-2.13 l -144,-144 c -2.33,0.7 -4.76,1.08 -7.21,1.08 -1.35,0 -2.69,-0.11 -3.95,-0.35 l -17.68,-3.1 c -9.51,-1.7 -20.1,-10.43 -24.15,-19.95 0,-0.01 -3.74,-9.19 -8.44,-20.4 -3.5,-8.38 -29.45,-21.57 -61.08,-27.09 l -1,-0.18 m 199.87,35.4 85.66,85.66 c -0.08,-5.62 -0.19,-11.23 -0.33,-16.84 -0.69,-29.32 -25.63,-58.44 -54.45,-63.57 l -24.74,-4.28 c -2.05,-0.36 -4.1,-0.69 -6.14,-0.97 m -276.53,64.5 c 0.06,4.43 0.14,8.86 0.23,13.28 0.68,29.32 25.67,58.44 54.57,63.58 l 26.79,4.73 -81.59,-81.59 m 328.85,126.7 c -0.54,0.12 -1.1,0.23 -1.65,0.33 0.02,0 0.05,-0.01 0.07,-0.01 v 0 c 0.01,0 0.02,0 0.03,-0.01 0.52,-0.1 1.04,-0.2 1.55,-0.31"
         style="fill:#70cec3;fill-opacity:1;fill-rule:nonzero;stroke:none"
         id="path158" />
      <path
         d="m 2642.82,4063.89 c -1.34,0 -2.64,0.02 -4.11,0.07 h -0.27 c -0.83,0 -1.7,0 -3.05,0.1 -1.09,0 -2.2,0.1 -3.27,0.18 l -1.56,0.12 c -2.8,0.27 -5.54,0.72 -8.57,1.42 -1.43,0.28 -2.72,0.64 -4.18,1.18 -1.06,0.31 -1.98,0.67 -2.87,1.16 l -0.64,0.3 -0.3,0.13 -0.28,0.2 -0.3,0.18 -1,0.61 -1.23,1.36 -8.47,17.36 c -2.73,5.56 -8.3,9.89 -14.68,11.81 l 144,144 c 0.19,-0.12 0.37,-0.25 0.56,-0.38 l 0.48,-0.35 0.18,-0.24 0.57,-0.43 c 1.08,-0.84 2.18,-1.82 3.44,-3.08 1.47,-1.48 2.64,-2.85 3.95,-4.68 0.7,-0.84 1.37,-1.85 2.07,-3.17 l 0.13,-0.23 0.13,-0.21 c 1.06,-1.57 1.9,-3.44 2.72,-5.28 0.56,-1.34 1.06,-2.81 1.53,-4.38 v -0.27 l 0.24,-0.78 c 0.5,-1.59 0.81,-3.05 0.96,-4.46 l 0.1,-0.35 0.09,-0.35 v -0.42 l 0.07,-0.42 c 0.31,-1.97 0.47,-3.81 0.47,-5.61 0.49,-19.14 0.6,-38.53 0.33,-57.84 l -85.66,-85.66 c -7.44,-1.05 -14.8,-1.59 -21.58,-1.59"
         style="fill:#34bbae;fill-opacity:1;fill-rule:nonzero;stroke:none"
         id="path160" />
      <path
         d="m 2608.75,4065.65 c -1.03,0.93 -1.85,1.87 -2.37,2.9 v 0 l -8.45,17.35 8.46,-17.35 c 0.51,-1.03 1.33,-1.97 2.36,-2.9"
         style="fill:#34bbae;fill-opacity:1;fill-rule:nonzero;stroke:none"
         id="path162" />
      <path
         d="m 2597.93,4085.9 c -0.22,0.44 -0.46,0.87 -0.72,1.28 0.26,-0.41 0.5,-0.84 0.72,-1.28 m -0.74,1.32 c -0.01,0.01 -0.02,0.03 -0.03,0.04 0.01,-0.01 0.02,-0.03 0.03,-0.04"
         style="fill:#14b09a;fill-opacity:1;fill-rule:nonzero;stroke:none"
         id="path164" />
      <path
         d="m 2755.12,4207.27 c 0,0.21 -0.01,0.42 -0.01,0.63 0,-0.21 0.01,-0.42 0.01,-0.63"
         style="fill:#26b6a6;fill-opacity:1;fill-rule:nonzero;stroke:none"
         id="path166" />
      <path
         d="m 2755.11,4207.97 c -0.01,0.38 -0.02,0.76 -0.03,1.15 0.01,-0.39 0.02,-0.77 0.03,-1.15"
         style="fill:#26b6a6;fill-opacity:1;fill-rule:nonzero;stroke:none"
         id="path168" />
      <path
         d="m 2437.87,4020.08 v 0 c 1.02,0.11 2.04,0.24 3.07,0.39 -1.03,-0.15 -2.05,-0.28 -3.07,-0.39 m 3.14,0.4 c 0.15,0.03 0.31,0.05 0.46,0.08 -0.15,-0.03 -0.31,-0.05 -0.46,-0.08"
         style="fill:#49c1a9;fill-opacity:1;fill-rule:nonzero;stroke:none"
         id="path170" />
      <path
         d="m 2436.8,4019.98 c 0.01,0 0.01,0 0.02,0 0.35,0.03 0.7,0.07 1.05,0.1 v 0 c -0.36,-0.04 -0.72,-0.07 -1.07,-0.1"
         style="fill:#26b6a6;fill-opacity:1;fill-rule:nonzero;stroke:none"
         id="path172" />
      <path
         d="m 2437.87,4020.08 c 0.04,0.01 0.07,0.01 0.11,0.01 1.24,0.13 2.49,0.3 3.76,0.51 -0.09,-0.01 -0.18,-0.03 -0.27,-0.04 -0.15,-0.03 -0.31,-0.05 -0.46,-0.08 -0.02,0 -0.05,0 -0.07,-0.01 -1.03,-0.15 -2.05,-0.28 -3.07,-0.39"
         style="fill:#33baab;fill-opacity:1;fill-rule:nonzero;stroke:none"
         id="path174" />
      <path
         d="m 2436.82,4019.98 c 0.39,0.04 0.77,0.07 1.16,0.11 -0.04,0 -0.07,0 -0.11,-0.01 v 0 c -0.35,-0.03 -0.7,-0.07 -1.05,-0.1"
         style="fill:#34bbae;fill-opacity:1;fill-rule:nonzero;stroke:none"
         id="path176" />
      <path
         d="m 2441.74,4020.6 16.18,2.87 v 0 l -16.18,-2.87"
         style="fill:#49c1a9;fill-opacity:1;fill-rule:nonzero;stroke:none"
         id="path178" />
      <path
         d="m 2432.03,4025.13 c -1.62,0 -3.22,0.08 -4.99,0.28 -2.31,0.17 -4.61,0.58 -7.34,1.35 -1.16,0.29 -2.31,0.67 -3.05,0.9 l -0.54,0.22 211.59,211.58 56.1,9.89 -219.27,-219.27 -23.66,-4.2 c -3.07,-0.5 -6.05,-0.75 -8.84,-0.75"
         style="fill:#34bbae;fill-opacity:1;fill-rule:nonzero;stroke:none"
         id="path180" />
      <path
         d="m 2389.37,4043.88 c -4.03,7.06 -6.4,15.37 -6.62,24.57 0.01,-0.29 0.02,-0.57 0.03,-0.86 0.34,-8.86 2.69,-16.87 6.6,-23.71 h -0.01"
         style="fill:#23b5a2;fill-opacity:1;fill-rule:nonzero;stroke:none"
         id="path182" />
      <path
         d="m 2389.38,4043.88 c -3.91,6.84 -6.26,14.85 -6.6,23.71 0.34,-8.86 2.69,-16.87 6.6,-23.71 h -0.01"
         style="fill:#33baab;fill-opacity:1;fill-rule:nonzero;stroke:none"
         id="path184" />
      <path
         d="m 2393.32,4047.82 c -3.23,6.14 -5.04,13.18 -5.22,20.74 -0.43,20.34 -0.51,40.94 -0.23,61.42 l 81.59,81.59 106.34,18.74 -182.48,-182.49"
         style="fill:#34bbae;fill-opacity:1;fill-rule:nonzero;stroke:none"
         id="path186" />
      <path
         d="m 2323.83,4120 c 0,-6.29 -4.56,-10.67 -10.18,-9.78 -5.62,0.89 -10.18,6.7 -10.18,12.98 0,6.28 4.56,10.66 10.18,9.78 5.62,-0.89 10.18,-6.69 10.18,-12.98"
         style="fill:#17282f;fill-opacity:1;fill-rule:nonzero;stroke:none"
         id="path188" />
      <path
         d="m 2432.03,4019.77 c -1.83,0 -3.62,0.1 -5.39,0.29 -0.55,0.05 -1.1,0.1 -1.64,0.16 v 0 c 0.54,-0.06 1.09,-0.11 1.64,-0.16 v 0 c 1.76,-0.19 3.55,-0.29 5.36,-0.29 0.01,0 0.02,0 0.04,0 v 0 0 c 0.01,0 0.03,0 0.04,0 1.55,0 3.13,0.07 4.72,0.21 -1.61,-0.14 -3.2,-0.21 -4.77,-0.21"
         style="fill:#0b7465;fill-opacity:1;fill-rule:nonzero;stroke:none"
         id="path190" />
      <path
         d="m 2411.55,4023.97 c -1.93,0.81 -3.83,1.78 -5.56,2.84 v 0 0 c -6.87,4.18 -12.57,9.99 -16.61,17.07 l 0.02,0.02 c 5.1,-8.94 12.83,-15.84 22.15,-19.93"
         style="fill:#306a62;fill-opacity:1;fill-rule:nonzero;stroke:none"
         id="path192" />
      <path
         d="m 2432.04,4019.77 v 0 c 0.01,0 0.03,0 0.04,0 -0.01,0 -0.03,0 -0.04,0 m -0.04,0 c -1.81,0 -3.6,0.1 -5.36,0.29 1.76,-0.19 3.55,-0.29 5.36,-0.29 m -19.81,3.94 c -0.22,0.08 -0.43,0.17 -0.64,0.26 v 0 c -9.32,4.09 -17.05,10.99 -22.15,19.93 l 3.92,3.92 c 3.53,-6.73 8.78,-12.37 15.45,-16.44 1.68,-1.02 3.54,-1.96 5.41,-2.71 l 1.2,-0.49 0.73,-0.3 -4.09,-4.09 0.17,-0.08"
         style="fill:#30786e;fill-opacity:1;fill-rule:nonzero;stroke:none"
         id="path194" />
      <path
         d="m 2597.16,4087.26 c -3.27,5.13 -9.9,8.54 -16.34,8.54 -0.92,0 -1.84,-0.07 -2.74,-0.21 0.91,0.14 1.83,0.21 2.75,0.21 6.16,0 12.51,-3.12 15.91,-7.9 0,-0.01 0,-0.01 0,-0.01 0.01,-0.01 0.02,-0.03 0.03,-0.04 0.14,-0.19 0.27,-0.39 0.39,-0.59"
         style="fill:#061c19;fill-opacity:1;fill-rule:nonzero;stroke:none"
         id="path196" />
      <path
         d="m 2457.92,4023.47 0.01,0.01 8.53,1.51 -8.54,-1.52 m 8.54,1.52 c 31.23,5.51 60.36,19.09 65.05,30.34 3.11,7.43 5.82,13.92 7.31,17.48 -1.48,-3.58 -4.16,-10.11 -7.27,-17.52 -4.7,-11.25 -33.83,-24.84 -65.09,-30.3"
         style="fill:#306a62;fill-opacity:1;fill-rule:nonzero;stroke:none"
         id="path198" />
      <path
         d="m 2543.02,4080.88 c 4.28,5.75 11.05,10.51 17.1,11.58 l 17.66,3.11 c 0.98,0.18 1.98,0.26 2.98,0.26 5.78,0 11.75,-2.76 15.28,-7.02 0.24,-0.3 0.47,-0.6 0.7,-0.91 -3.4,4.78 -9.75,7.9 -15.91,7.9 -0.92,0 -1.84,-0.07 -2.75,-0.21 -0.09,-0.02 -0.18,-0.04 -0.28,-0.05 v 0 0 l -0.08,-0.02 -17.58,-3.09 c -2.23,-0.39 -4.56,-1.29 -6.82,-2.54 -3.89,-2.16 -7.59,-5.39 -10.3,-9.01 m 53.75,6.97 c -0.01,0.01 -0.02,0.03 -0.03,0.04 0.01,-0.01 0.02,-0.03 0.03,-0.04"
         style="fill:#306a62;fill-opacity:1;fill-rule:nonzero;stroke:none"
         id="path200" />
      <path
         d="m 2457.93,4023.48 6.6,6.6 1,0.18 c 31.63,5.52 57.58,18.71 61.08,27.09 4.7,11.21 8.44,20.39 8.44,20.4 4.05,9.52 14.64,18.25 24.15,19.95 l 17.68,3.1 c 1.26,0.24 2.6,0.35 3.95,0.35 2.45,0 4.88,-0.38 7.21,-1.08 l -4.46,-4.46 c 4.86,-0.69 9.5,-3.21 12.46,-6.8 -3.53,4.26 -9.5,7.02 -15.28,7.02 -1,0 -2,-0.08 -2.98,-0.26 l -17.66,-3.11 c -6.05,-1.07 -12.82,-5.83 -17.1,-11.58 v 0 c -1.24,-1.66 -2.27,-3.4 -3.01,-5.15 0,0 -0.44,-1.07 -1.19,-2.92 v 0 c -1.49,-3.56 -4.2,-10.05 -7.31,-17.48 -4.69,-11.25 -33.82,-24.83 -65.05,-30.34 v 0 l -8.53,-1.51"
         style="fill:#30786e;fill-opacity:1;fill-rule:nonzero;stroke:none"
         id="path202" />
      <path
         d="m 2619.75,4060.79 c -0.68,0.16 -1.36,0.34 -2,0.54 0.03,-0.01 0.05,-0.02 0.08,-0.03 0.62,-0.18 1.25,-0.35 1.9,-0.51 0,0 0.01,0 0.02,0"
         style="fill:#804349;fill-opacity:1;fill-rule:nonzero;stroke:none"
         id="path204" />
      <path
         d="m 2642.82,4058.54 c -1.39,0 -2.76,0.02 -4.11,0.06 -1.06,0 -2.14,0 -3.32,0.11 -1.24,0 -2.47,0.1 -3.68,0.2 v 0 c 1.21,-0.1 2.44,-0.2 3.68,-0.2 1.18,-0.11 2.26,-0.11 3.32,-0.11 0.07,0 0.14,0 0.21,0 1.29,-0.04 2.59,-0.06 3.92,-0.06 8.83,0 18.65,0.87 28.62,2.63 l 10.23,1.77 -10.23,-1.77 c -9.98,-1.76 -19.8,-2.63 -28.64,-2.63 m -19.33,1.44 v 0 c -0.87,0.18 -1.72,0.36 -2.55,0.55 -0.4,0.08 -0.8,0.17 -1.19,0.26 -0.01,0 -0.02,0 -0.02,0 0.4,-0.09 0.8,-0.18 1.21,-0.26 0.83,-0.19 1.68,-0.37 2.55,-0.55 m -5.66,1.32 c -0.03,0.01 -0.05,0.02 -0.08,0.03 -0.49,0.15 -0.96,0.31 -1.41,0.49 -1.51,0.42 -2.79,0.96 -3.97,1.6 l -1.6,0.86 -1.88,1.25 v 0 l 1.88,-1.25 1.6,-0.86 c 1.18,-0.64 2.46,-1.18 3.97,-1.6 0.47,-0.19 0.97,-0.36 1.49,-0.52"
         style="fill:#0b7465;fill-opacity:1;fill-rule:nonzero;stroke:none"
         id="path206" />
      <path
         d="m 2681.69,4062.94 14.48,2.56 c 13.21,2.33 25.66,9.19 35.69,18.77 -10.01,-9.59 -22.44,-16.46 -35.66,-18.82 l -14.51,-2.51"
         style="fill:#306a62;fill-opacity:1;fill-rule:nonzero;stroke:none"
         id="path208" />
      <path
         d="m 2755.5,4159.37 c 0.07,9.64 0.06,19.27 -0.04,28.89 0.06,-5.52 0.09,-11.05 0.09,-16.57 0,-4.1 -0.01,-8.21 -0.05,-12.32"
         style="fill:#306a62;fill-opacity:1;fill-rule:nonzero;stroke:none"
         id="path210" />
      <path
         d="m 2642.84,4058.54 c -1.33,0 -2.63,0.02 -3.92,0.06 0.98,-0.03 1.97,-0.05 2.98,-0.05 5.2,0 10.8,0.38 16.54,0.96 l 5.96,5.97 c 2.04,0.28 4.09,0.61 6.14,0.97 l 24.74,4.28 c 28.82,5.13 53.76,34.25 54.45,63.57 0.14,5.61 0.25,11.22 0.33,16.84 l 5.3,5.3 c 0.18,16.96 0.17,33.9 -0.24,50.83 0.16,-6.34 0.27,-12.68 0.34,-19.01 0.1,-9.62 0.11,-19.25 0.04,-28.89 v 0 c -0.07,-8.39 -0.21,-16.78 -0.42,-25.19 -0.44,-18.66 -9.57,-36.82 -23.22,-49.91 v 0 c -10.03,-9.58 -22.48,-16.44 -35.69,-18.77 l -14.48,-2.56 -10.23,-1.77 c -9.97,-1.76 -19.79,-2.63 -28.62,-2.63"
         style="fill:#30786e;fill-opacity:1;fill-rule:nonzero;stroke:none"
         id="path212" />
      <path
         d="m 2382.75,4068.45 c -0.26,12.47 -0.4,24.94 -0.4,37.43 0,12.48 0.14,24.98 0.4,37.51 0.04,1.44 0.12,2.88 0.26,4.32 l 0.03,-0.02 c -0.13,-1.42 -0.21,-2.84 -0.25,-4.26 -0.45,-19.9 -0.55,-39.74 -0.28,-59.51 0.05,-5.15 0.13,-10.31 0.24,-15.47 m 43.2,138.59 c 5.06,2.37 10.36,4.1 15.79,5.07 v 0 l 217.6,38.36 -25.04,-4.42 -0.04,-0.03 -51.9,-9.15 0.04,0.04 -106.34,-18.75 -0.04,-0.04 -34.28,-6.05 c -5.43,-0.95 -10.73,-2.68 -15.79,-5.03"
         style="fill:#306a62;fill-opacity:1;fill-rule:nonzero;stroke:none"
         id="path214" />
      <path
         d="m 2383.04,4147.69 -0.03,0.02 c 2.91,30.71 28.87,59.09 58.73,64.4 -5.43,-0.97 -10.73,-2.7 -15.79,-5.07 -22.75,-10.63 -40.55,-34.2 -42.91,-59.35"
         style="fill:#467770;fill-opacity:1;fill-rule:nonzero;stroke:none"
         id="path216" />
      <path
         d="m 2382.51,4083.92 c -0.27,19.77 -0.17,39.61 0.28,59.51 0.04,1.42 0.12,2.84 0.25,4.26 v 0 c 2.36,25.15 20.16,48.72 42.91,59.35 v 0 c 5.06,2.35 10.36,4.08 15.79,5.03 l 34.28,6.05 -6.56,-6.55 -26.79,-4.73 c -28.9,-5.14 -53.89,-34.26 -54.57,-63.58 -0.09,-4.42 -0.17,-8.85 -0.23,-13.28 l -5.32,-5.32 c -0.14,-13.59 -0.18,-27.17 -0.04,-40.74 m 193.29,146.39 6.56,6.56 51.9,9.15 -6.56,-6.56 -51.9,-9.15"
         style="fill:#30786e;fill-opacity:1;fill-rule:nonzero;stroke:none"
         id="path218" />
      <path
         d="m 2597.21,4087.18 c 0,0.02 -0.01,0.03 -0.02,0.04 0.01,-0.01 0.02,-0.02 0.02,-0.04"
         style="fill:#061c19;fill-opacity:1;fill-rule:nonzero;stroke:none"
         id="path220" />
      <path
         d="m 2755.11,4207.9 c 0,0.02 0,0.05 0,0.07 0,-0.02 0,-0.05 0,-0.07"
         style="fill:#30786e;fill-opacity:1;fill-rule:nonzero;stroke:none"
         id="path222" />
      <path
         d="m 2696.38,4257 c 0.15,0.02 0.29,0.05 0.43,0.07 -0.14,-0.02 -0.28,-0.05 -0.43,-0.07 m 0.43,0.07 c 0.67,0.12 1.34,0.22 2.01,0.31 0.04,0 0.08,0 0.13,0.01 -0.71,-0.09 -1.42,-0.2 -2.14,-0.32"
         style="fill:#0b584b;fill-opacity:1;fill-rule:nonzero;stroke:none"
         id="path224" />
      <path
         d="m 2696.2,4256.97 c 0.88,0.16 1.75,0.29 2.62,0.41 -0.67,-0.09 -1.34,-0.19 -2.01,-0.31 v 0 c -0.14,-0.02 -0.28,-0.05 -0.43,-0.07 -0.06,-0.01 -0.12,-0.02 -0.18,-0.03"
         style="fill:#1f786c;fill-opacity:1;fill-rule:nonzero;stroke:none"
         id="path226" />
      <path
         d="m 2729.06,4252.25 c -3.84,1.99 -7.98,3.49 -12.34,4.43 4.36,-0.94 8.5,-2.43 12.34,-4.43"
         style="fill:#0b7465;fill-opacity:1;fill-rule:nonzero;stroke:none"
         id="path228" />
      <path
         d="m 2690.37,4255.91 0.03,0.04 5.8,1.02 v 0 c 0.06,0.01 0.12,0.02 0.18,0.03 0.15,0.02 0.29,0.05 0.43,0.07 v 0 c 0.72,0.12 1.43,0.23 2.14,0.32 2.33,0.3 4.63,0.44 6.9,0.44 3.15,0 6.23,-0.28 9.22,-0.82 -2.96,0.53 -6.01,0.79 -9.13,0.79 -3.19,0 -6.46,-0.28 -9.77,-0.86 l -5.8,-1.03"
         style="fill:#306a62;fill-opacity:1;fill-rule:nonzero;stroke:none"
         id="path230" />
      <path
         d="m 2732.04,4244.07 c -1.01,0.7 -2.11,1.45 -3.21,2.13 l -2.17,1.28 c -6.44,3.32 -13.43,5 -20.81,5 -2.87,0 -5.8,-0.26 -8.71,-0.78 l -13.34,-2.35 6.57,6.56 5.8,1.03 c 3.31,0.58 6.58,0.86 9.77,0.86 3.12,0 6.17,-0.26 9.13,-0.79 0.55,-0.1 1.11,-0.21 1.65,-0.33 4.36,-0.94 8.5,-2.44 12.34,-4.43 v 0 l 2.57,-1.49 c 1.4,-0.86 2.78,-1.82 4.18,-2.78 l 1.28,-1.07 -1.21,1 -3.84,-3.84"
         style="fill:#30786e;fill-opacity:1;fill-rule:nonzero;stroke:none"
         id="path232" />
      <path
         d="m 2597.93,4085.9 v 0 0 c -0.22,0.44 -0.46,0.87 -0.72,1.28 0,0.02 -0.01,0.03 -0.02,0.04 -0.01,0.01 -0.02,0.03 -0.03,0.04 -0.12,0.2 -0.25,0.4 -0.39,0.59 0.44,-0.62 0.83,-1.27 1.16,-1.95 v 0 m -1.19,1.99 c 0,0 0,0 0,0.01 0,-0.01 0,-0.01 0,-0.01"
         style="fill:#0b584c;fill-opacity:1;fill-rule:nonzero;stroke:none"
         id="path234" />
      <path
         d="m 2638.92,4058.6 c -0.07,0 -0.14,0 -0.21,0 -1.06,0 -2.14,0 -3.32,0.11 -1.24,0 -2.47,0.1 -3.68,0.2 v 0 c 1.21,-0.1 2.44,-0.2 3.68,-0.2 1.18,-0.11 2.26,-0.11 3.32,-0.11 0.07,0 0.14,0 0.21,0"
         style="fill:#0b7465;fill-opacity:1;fill-rule:nonzero;stroke:none"
         id="path236" />
      <path
         d="m 2631.71,4058.91 c -0.56,0.04 -1.12,0.09 -1.67,0.13 -2.33,0.21 -4.5,0.55 -6.55,0.94 2.54,-0.46 5.29,-0.82 8.22,-1.07"
         style="fill:#0e7166;fill-opacity:1;fill-rule:nonzero;stroke:none"
         id="path238" />
      <path
         d="m 2619.73,4060.79 c -0.65,0.16 -1.28,0.33 -1.9,0.51 0.61,-0.17 1.25,-0.34 1.9,-0.51"
         style="fill:#0e7166;fill-opacity:1;fill-rule:nonzero;stroke:none"
         id="path240" />
      <path
         d="m 2608.89,4065.53 -0.04,0.03 c -0.03,0.03 -0.07,0.06 -0.1,0.09 0.05,-0.04 0.09,-0.08 0.14,-0.12"
         style="fill:#0e7166;fill-opacity:1;fill-rule:nonzero;stroke:none"
         id="path242" />
      <path
         d="m 2597.93,4085.9 c -0.33,0.68 -0.72,1.33 -1.16,1.95 -0.01,0.01 -0.02,0.03 -0.03,0.04 0,0 0,0 0,0.01 -0.23,0.31 -0.46,0.61 -0.7,0.91 0.75,-0.9 1.38,-1.88 1.89,-2.91"
         style="fill:#0e7166;fill-opacity:1;fill-rule:nonzero;stroke:none"
         id="path244" />
      <path
         d="m 2641.9,4058.55 c -1.01,0 -2,0.02 -2.98,0.05 -0.07,0 -0.14,0 -0.21,0 -1.06,0 -2.14,0 -3.32,0.11 -1.24,0 -2.47,0.1 -3.68,0.2 v 0 c -2.93,0.25 -5.68,0.61 -8.22,1.07 v 0 c -0.87,0.18 -1.72,0.36 -2.55,0.55 -0.41,0.08 -0.81,0.17 -1.21,0.26 v 0 c -0.65,0.17 -1.29,0.34 -1.9,0.51 v 0 c -0.52,0.16 -1.02,0.33 -1.49,0.52 -1.51,0.42 -2.79,0.96 -3.97,1.6 l -1.6,0.86 -1.88,1.25 v 0 c -0.05,0.04 -0.09,0.08 -0.14,0.12 v 0 c 0,0 0,0 0,0 -1.03,0.93 -1.85,1.87 -2.36,2.9 l -8.46,17.35 v 0 c -0.51,1.03 -1.14,2.01 -1.89,2.91 -2.96,3.59 -7.6,6.11 -12.46,6.8 l 4.46,4.46 c 6.38,-1.92 11.95,-6.25 14.68,-11.81 l 8.47,-17.36 1.23,-1.36 1,-0.61 0.3,-0.18 0.28,-0.2 0.3,-0.13 0.64,-0.3 c 0.89,-0.49 1.81,-0.85 2.87,-1.16 1.46,-0.54 2.75,-0.9 4.18,-1.18 3.03,-0.7 5.77,-1.15 8.57,-1.42 l 1.56,-0.12 c 1.07,-0.08 2.18,-0.18 3.27,-0.18 1.35,-0.1 2.22,-0.1 3.05,-0.1 h 0.27 c 1.47,-0.05 2.77,-0.07 4.11,-0.07 6.78,0 14.14,0.54 21.58,1.59 l -5.96,-5.97 c -5.74,-0.58 -11.34,-0.96 -16.54,-0.96"
         style="fill:#0f7569;fill-opacity:1;fill-rule:nonzero;stroke:none"
         id="path246" />
      <path
         d="m 2750.06,4151.14 c 0.27,19.31 0.16,38.7 -0.33,57.84 0,1.8 -0.16,3.64 -0.47,5.61 l -0.07,0.42 v 0.42 l -0.09,0.35 -0.1,0.35 c -0.15,1.41 -0.46,2.87 -0.96,4.46 l -0.24,0.78 v 0.27 c -0.47,1.57 -0.97,3.04 -1.53,4.38 -0.82,1.84 -1.66,3.71 -2.72,5.28 l -0.13,0.21 -0.13,0.23 c -0.7,1.32 -1.37,2.33 -2.07,3.17 -1.31,1.83 -2.48,3.2 -3.95,4.68 -1.26,1.26 -2.36,2.24 -3.44,3.08 l -0.57,0.43 -0.18,0.24 -0.48,0.35 c -0.19,0.13 -0.37,0.26 -0.56,0.38 l 3.84,3.84 1.21,-1 c 1.4,-1.07 2.68,-2.25 3.96,-3.53 1.61,-1.61 3,-3.22 4.28,-5.04 1.08,-1.29 1.94,-2.68 2.68,-4.07 1.29,-1.93 2.25,-4.06 3.21,-6.2 0.75,-1.82 1.4,-3.75 1.93,-5.68 v -0.21 0 0 c 0.53,-1.72 0.96,-3.54 1.18,-5.46 l 0.21,-1.29 c 0.32,-2.03 0.54,-4.18 0.54,-6.31 0.01,-0.39 0.02,-0.77 0.03,-1.15 0,-0.02 0,-0.05 0,-0.07 0,-0.21 0.01,-0.42 0.01,-0.63 0.41,-16.93 0.42,-33.87 0.24,-50.83 l -5.3,-5.3"
         style="fill:#0f7569;fill-opacity:1;fill-rule:nonzero;stroke:none"
         id="path248" />
      <path
         d="m 2432.04,4019.77 c -0.02,0 -0.03,0 -0.04,0 0.01,0 0.02,0 0.04,0 v 0 m 0.04,0 c 1.56,0 3.14,0.07 4.74,0.21 -0.01,0 -0.01,0 -0.02,0 -1.59,-0.14 -3.17,-0.21 -4.72,-0.21"
         style="fill:#0b7465;fill-opacity:1;fill-rule:nonzero;stroke:none"
         id="path250" />
      <path
         d="m 2437.98,4020.09 c 1.24,0.14 2.5,0.32 3.76,0.54 l 16.19,2.85 -0.01,-0.01 -16.18,-2.87 v 0 0 c -1.27,-0.21 -2.52,-0.38 -3.76,-0.51"
         style="fill:#0e7166;fill-opacity:1;fill-rule:nonzero;stroke:none"
         id="path252" />
      <path
         d="m 2425,4020.22 c -1.76,0.21 -3.46,0.54 -5.14,0.96 1.68,-0.41 3.4,-0.73 5.14,-0.96"
         style="fill:#0e7166;fill-opacity:1;fill-rule:nonzero;stroke:none"
         id="path254" />
      <path
         d="m 2417.32,4021.86 c -0.92,0.27 -1.85,0.57 -2.77,0.88 l -0.73,0.3 c 1.14,-0.44 2.31,-0.83 3.5,-1.18"
         style="fill:#0e7166;fill-opacity:1;fill-rule:nonzero;stroke:none"
         id="path256" />
      <path
         d="m 2432.04,4019.77 c -0.02,0 -0.03,0 -0.04,0 -1.81,0 -3.6,0.1 -5.36,0.29 v 0 c -0.55,0.05 -1.1,0.1 -1.64,0.16 v 0 c -1.74,0.23 -3.46,0.55 -5.14,0.96 v 0 c -0.49,0.12 -0.97,0.25 -1.46,0.38 -0.36,0.09 -0.72,0.19 -1.08,0.3 v 0 c -1.19,0.35 -2.36,0.74 -3.5,1.18 v 0 l -1.63,0.67 v 0 l -0.17,0.08 4.09,4.09 0.54,-0.22 c 0.74,-0.23 1.89,-0.61 3.05,-0.9 2.73,-0.77 5.03,-1.18 7.34,-1.35 1.77,-0.2 3.37,-0.28 4.99,-0.28 2.79,0 5.77,0.25 8.84,0.75 l 23.66,4.2 -6.6,-6.6 -16.19,-2.85 c -1.26,-0.22 -2.52,-0.4 -3.76,-0.54 -0.39,-0.04 -0.77,-0.07 -1.16,-0.11 -1.6,-0.14 -3.18,-0.21 -4.74,-0.21 -0.01,0 -0.03,0 -0.04,0"
         style="fill:#0f7569;fill-opacity:1;fill-rule:nonzero;stroke:none"
         id="path258" />
      <path
         d="m 2634.26,4246.02 0.04,0.03 25.04,4.42 31.06,5.48 -0.03,-0.04 -56.11,-9.89"
         style="fill:#0e7166;fill-opacity:1;fill-rule:nonzero;stroke:none"
         id="path260" />
      <path
         d="m 2627.7,4239.46 6.56,6.56 56.11,9.89 -6.57,-6.56 -56.1,-9.89"
         style="fill:#0f7569;fill-opacity:1;fill-rule:nonzero;stroke:none"
         id="path262" />
      <path
         d="m 2389.38,4043.88 c -3.91,6.84 -6.26,14.85 -6.6,23.71 -0.01,0.29 -0.02,0.57 -0.03,0.86 v 0 c -0.11,5.16 -0.19,10.32 -0.24,15.47 0.07,-5.15 0.16,-10.29 0.28,-15.44 0.22,-9.2 2.59,-17.52 6.61,-24.58 l -0.03,-0.02"
         style="fill:#0e7166;fill-opacity:1;fill-rule:nonzero;stroke:none"
         id="path264" />
      <path
         d="m 2389.4,4043.9 c -4.02,7.06 -6.39,15.38 -6.61,24.58 -0.12,5.15 -0.21,10.29 -0.28,15.44 -0.14,13.57 -0.1,27.15 0.04,40.74 l 5.32,5.32 c -0.28,-20.48 -0.2,-41.08 0.23,-61.42 0.18,-7.56 1.99,-14.6 5.22,-20.74 l -3.92,-3.92"
         style="fill:#0f7569;fill-opacity:1;fill-rule:nonzero;stroke:none"
         id="path266" />
      <path
         d="m 2476.02,4218.12 0.04,0.04 106.34,18.75 -0.04,-0.04 -106.34,-18.75"
         style="fill:#0e7166;fill-opacity:1;fill-rule:nonzero;stroke:none"
         id="path268" />
      <path
         d="m 2469.46,4211.57 6.56,6.55 106.34,18.75 -6.56,-6.56 -106.34,-18.74"
         style="fill:#0f7569;fill-opacity:1;fill-rule:nonzero;stroke:none"
         id="path270" />
      <path
         d="m 2382.75,4068.45 -1.3,53.85 c 0.04,9.05 -0.69,17.83 0.05,27.09 0.98,9.18 3.98,18.07 8.33,26.18 8.73,16.17 23.19,29.46 40.67,35.96 8.9,3.27 17.92,4.13 26.66,5.89 l 26.49,4.79 106.14,18.09 c 35.42,5.88 70.89,11.41 106.41,16.67 -35.17,-7.21 -70.4,-14.14 -105.68,-20.72 l -105.94,-19.3 -26.52,-4.55 c -8.84,-1.68 -17.88,-2.54 -25.89,-5.44 -16.36,-5.83 -29.97,-18.39 -38.75,-33.39 -4.34,-7.56 -7.41,-15.91 -8.57,-24.57 -0.95,-8.62 -0.46,-17.84 -0.8,-26.73 l -1.3,-53.82"
         style="fill:#ffffff;fill-opacity:1;fill-rule:nonzero;stroke:none"
         id="path272" />
      <path
         d="m 3233.64,2413.49 c -107.93,27.36 -218.92,49.81 -331.87,67.36 v 667.82 c 7.19,-7.72 12.23,-12.96 14.57,-15.11 12.07,-11.07 20.44,-19.62 41.28,-19.62 22.56,0 59.73,10.02 132,37.73 28.82,11.05 62.56,25.5 96.66,40.8 v -369.39 l -160.29,-296.14 c 636.14,141.66 782.74,351.49 782.74,351.49 l -77.79,101.05 v 672.59 c 0,3.89 -2.11,7.48 -5.52,9.36 -1.61,0.89 -3.39,1.34 -5.17,1.34 -1.97,0 -3.95,-0.55 -5.7,-1.63 -9.72,-6.09 -19.77,-12.37 -30.67,-18.16 -51.38,-29.45 -98.52,-53.7 -143.97,-74.05 -2.18,2.2 -4.44,3.8 -6.45,4.79 -0.58,0.28 -1.16,0.42 -1.75,0.42 -6.5,0 -14.29,-16.58 -36.56,-34.71 -31.13,-25.34 -56.35,-30.19 -82.22,-65.3 -6.73,-9.14 -15.75,-16.15 -25.97,-20.79 v 37.19 c 0,3.49 -1.69,6.75 -4.54,8.76 -1.82,1.29 -3.98,1.94 -6.16,1.94 -1.22,0 -2.44,-0.2 -3.61,-0.62 -56.77,-20.37 -115.14,-38.53 -178.44,-55.49 -4.68,-1.26 -7.93,-5.5 -7.93,-10.34 v -26.32 l -177.57,-37.17 c 0,0 -51.84,73.94 -106.94,149.46 v 111.84 c 282.86,46.16 543.41,131.69 753.76,247.47 263.76,145.26 436.37,328.96 499.21,531.26 l 0.11,0.31 c 10.42,26.49 19.04,53.11 25.65,79.25 l 0.07,-1283.97 c -22.52,-137.67 -92.82,-268.19 -208.93,-387.98 -41.54,-42.86 -87.58,-83.38 -136.78,-120.38 -49.06,-36.16 -97.57,-67.95 -148.31,-97.21 -133.95,-77.55 -285.66,-140.43 -452.91,-187.85 m 153.32,780.34 v 94.18 c 7.17,3.26 14,6.39 20.47,9.38 14.16,3.16 27.74,6.26 40.59,9.25 l -61.06,-112.81 m 143.3,46.34 -55.94,72.67 c 13.67,3.28 26.2,6.38 37.37,9.24 6.38,1.62 12.58,3.28 18.57,4.95 v -86.86 m -11.93,244.34 c 4.68,6.19 8.6,11.35 11.93,15.89 v -11.59 c -7.58,-2.97 -11.93,-4.3 -11.93,-4.3"
         style="fill:#a1dfd5;fill-opacity:1;fill-rule:nonzero;stroke:none"
         id="path274" />
      <path
         d="m 2901.77,2342.89 v 137.96 c 112.95,-17.55 223.94,-40 331.87,-67.36 -70.47,-19.98 -143.68,-37.21 -219.51,-51.64 -36.94,-7.06 -74.72,-13.44 -112.36,-18.96"
         style="fill:#95dbce;fill-opacity:1;fill-rule:nonzero;stroke:none"
         id="path276" />
      <path
         d="m 3386.96,3288.01 v 165.33 c 10.22,4.64 19.24,11.65 25.97,20.79 25.87,35.11 51.09,39.96 82.22,65.3 22.27,18.13 30.06,34.71 36.56,34.71 0.59,0 1.17,-0.14 1.75,-0.42 2.01,-0.99 4.27,-2.59 6.45,-4.79 -1.1,-0.49 -2.19,-0.98 -3.29,-1.47 -3.87,-1.71 -6.36,-5.55 -6.36,-9.78 v -57.28 c -3.33,-4.54 -7.25,-9.7 -11.93,-15.89 0,0 4.35,1.33 11.93,4.3 v -161.78 c -5.99,-1.67 -12.19,-3.33 -18.57,-4.95 -11.17,-2.86 -23.7,-5.96 -37.37,-9.24 l -13.47,17.5 -12.83,-23.7 c -12.85,-2.99 -26.43,-6.09 -40.59,-9.25 -6.47,-2.99 -13.3,-6.12 -20.47,-9.38"
         style="fill:#b4aea1;fill-opacity:1;fill-rule:nonzero;stroke:none"
         id="path278" />
      <path
         d="m 2957.62,3113.94 c -20.84,0 -29.21,8.55 -41.28,19.62 -2.34,2.15 -7.38,7.39 -14.57,15.11 v 372.08 c 55.1,-75.52 106.94,-149.46 106.94,-149.46 l 177.57,37.17 v -215.99 c -34.1,-15.3 -67.84,-29.75 -96.66,-40.8 -72.27,-27.71 -109.44,-37.73 -132,-37.73"
         style="fill:#1a7974;fill-opacity:1;fill-rule:nonzero;stroke:none"
         id="path280" />
      <path
         d="m 3207.68,2862.62 v 339.53 c 65.8,30.04 129.38,61.28 157.88,75.44 v -123.3 l -157.88,-291.67 m 0,550.32 v 13.64 c 55.57,15.08 107.44,31.11 157.88,48.8 v -28.62 c -3.7,-0.96 -8.61,-2.25 -14.55,-3.81 l -143.33,-30.01"
         style="fill:#a1dfd5;fill-opacity:1;fill-rule:nonzero;stroke:none"
         id="path282" />
      <path
         d="m 3365.56,3312.74 c -24.96,57.94 -14.54,130.21 -14.54,130.21 h -0.01 c 5.94,1.56 10.85,2.85 14.55,3.81 v -134.02"
         style="fill:#b4aea1;fill-opacity:1;fill-rule:nonzero;stroke:none"
         id="path284" />
      <path
         d="m 3207.68,3202.15 v 210.79 l 143.33,30.01 h 0.01 c 0,0 -10.42,-72.27 14.54,-130.21 v -35.15 c -28.5,-14.16 -92.08,-45.4 -157.88,-75.44"
         style="fill:#1a7974;fill-opacity:1;fill-rule:nonzero;stroke:none"
         id="path286" />
      <path
         d="m 3709.53,3007.29 -157.86,205.07 v 120.98 c 115.06,35.85 151.41,81.15 155.53,139.77 4.38,62.38 -7.94,87.49 -33.05,87.49 -16.59,0 -38.77,-10.96 -65.4,-29.39 -21.51,-14.88 -41.44,-25.66 -57.08,-33.08 v 52.62 c 45.17,20.36 91.97,44.49 142.54,73.48 5.28,2.81 10.37,5.72 15.32,8.66 v -625.6"
         style="fill:#a1dfd5;fill-opacity:1;fill-rule:nonzero;stroke:none"
         id="path288" />
      <path
         d="m 3551.67,3333.34 v 164.79 c 15.64,7.42 35.57,18.2 57.08,33.08 26.63,18.43 48.81,29.39 65.4,29.39 25.11,0 37.43,-25.11 33.05,-87.49 -4.12,-58.62 -40.47,-103.92 -155.53,-139.77"
         style="fill:#b4aea1;fill-opacity:1;fill-rule:nonzero;stroke:none"
         id="path290" />
      <path
         d="m 2901.77,3632.59 v -1289.7 c 37.64,5.52 75.42,11.9 112.36,18.96 255.79,48.68 482.03,129.26 672.42,239.49 50.74,29.26 99.25,61.05 148.31,97.21 49.2,37 95.24,77.52 136.78,120.38 116.11,119.79 186.41,250.31 208.93,387.98 l -0.07,1283.97 c -6.61,-26.14 -15.23,-52.76 -25.65,-79.25 l -0.11,-0.31 c -62.84,-202.3 -235.45,-386 -499.21,-531.26 -210.35,-115.78 -470.9,-201.31 -753.76,-247.47 M 2891.06,2330.51 V 3641.7 l 4.51,0.73 c 283.38,45.79 544.39,131.2 754.8,247.01 261.15,143.82 431.97,325.25 494.04,524.74 v 4.55 l 1.75,0.06 c 10.9,28.13 19.72,56.38 26.22,84.02 1.19,4.78 5.54,7.79 10.4,7.23 4.89,-0.6 8.42,-4.56 8.42,-9.42 V 3206.05 c -22.95,-140.73 -94.21,-273.19 -211.86,-394.56 -41.94,-43.27 -88.39,-84.16 -138.09,-121.53 -49.42,-36.43 -98.26,-68.43 -149.34,-97.88 -191.43,-110.85 -418.8,-191.84 -675.78,-240.74 -39.09,-7.48 -79.12,-14.19 -118.95,-19.94 l -6.12,-0.89"
         style="fill:#26b6a6;fill-opacity:1;fill-rule:nonzero;stroke:none"
         id="path292" />
      <path
         d="m 3207.68,3426.58 v -742.41 c 55.43,15.17 107.28,31.36 157.88,49.3 v 741.91 c -50.44,-17.69 -102.31,-33.72 -157.88,-48.8 m -10.7,-767.1 c -2.33,0 -4.63,0.76 -6.51,2.2 -2.65,2.04 -4.19,5.17 -4.19,8.5 v 764.6 c 0,4.84 3.25,9.08 7.93,10.34 63.3,16.96 121.67,35.12 178.44,55.49 3.26,1.16 6.93,0.68 9.77,-1.32 2.85,-2.01 4.54,-5.27 4.54,-8.76 v -764.61 c 0,-4.52 -2.83,-8.55 -7.09,-10.08 -57.47,-20.6 -116.38,-38.92 -180.11,-56 -0.92,-0.25 -1.85,-0.36 -2.78,-0.36"
         style="fill:#ffffff;fill-opacity:1;fill-rule:nonzero;stroke:none"
         id="path294" />
      <path
         d="m 3551.67,3550.75 v -741.1 c 41.83,19.23 85.24,41.8 132.21,68.72 8.96,4.76 17.44,9.92 25.65,15.03 v 739.49 c -4.95,-2.94 -10.04,-5.85 -15.32,-8.66 -50.57,-28.99 -97.37,-53.12 -142.54,-73.48 m -10.7,-768.38 c -2.04,0 -4.08,0.57 -5.83,1.73 -3.04,1.97 -4.88,5.35 -4.88,8.97 v 764.61 c 0,4.23 2.49,8.07 6.36,9.78 46.47,20.65 94.64,45.36 147.26,75.52 10.9,5.79 20.95,12.07 30.67,18.16 3.32,2.06 7.48,2.18 10.87,0.29 3.41,-1.88 5.52,-5.47 5.52,-9.36 v -764.6 c 0,-3.7 -1.9,-7.12 -5.02,-9.08 -10.1,-6.32 -20.54,-12.85 -31.71,-18.77 -52.95,-30.36 -101.75,-55.38 -148.9,-76.33 -1.39,-0.62 -2.87,-0.92 -4.34,-0.92"
         style="fill:#ffffff;fill-opacity:1;fill-rule:nonzero;stroke:none"
         id="path296" />
      <path
         d="M 3895.02,3762.96 V 3026.4 c 25.98,22.3 50.41,45.13 72.85,68.09 30.95,31.52 59.53,65.72 85.01,101.71 v 728.43 c -21.52,-28.24 -44.88,-55.23 -69.72,-80.51 -26.83,-27.48 -56.47,-54.76 -88.14,-81.16 z m -10.7,-770.28 c -1.56,0 -3.11,0.33 -4.56,1.02 -3.75,1.76 -6.15,5.53 -6.15,9.68 v 764.61 c 0,3.2 1.43,6.22 3.88,8.26 32.55,26.9 62.96,54.78 90.38,82.85 31.73,32.31 60.98,67.45 86.95,104.45 2.69,3.83 7.54,5.48 11.99,4.05 4.45,-1.4 7.48,-5.53 7.48,-10.2 v -764.6 c 0,-2.2 -0.68,-4.35 -1.95,-6.16 -26.64,-37.94 -56.64,-73.99 -89.18,-107.13 -27.93,-28.59 -58.89,-56.98 -92.02,-84.38 -1.96,-1.61 -4.38,-2.45 -6.82,-2.45"
         style="fill:#ffffff;fill-opacity:1;fill-rule:nonzero;stroke:none"
         id="path298" />
      <path
         d="m 3025.99,2526.94 160.29,296.14 v -152.9 c 0,-3.33 1.54,-6.46 4.19,-8.5 1.88,-1.44 4.18,-2.2 6.51,-2.2 0.93,0 1.86,0.11 2.78,0.36 63.73,17.08 122.64,35.4 180.11,56 4.26,1.53 7.09,5.56 7.09,10.08 v 467.91 l 61.06,112.81 c 9.15,2.13 17.94,4.2 26.3,6.2 l 55.94,-72.67 v -447.1 c 0,-3.62 1.84,-7 4.88,-8.97 1.75,-1.16 3.79,-1.73 5.83,-1.73 1.47,0 2.95,0.3 4.34,0.92 47.15,20.95 95.95,45.97 148.9,76.33 11.17,5.92 21.61,12.45 31.71,18.77 3.12,1.96 5.02,5.38 5.02,9.08 v 92.01 l 77.79,-101.05 c 0,0 -146.6,-209.83 -782.74,-351.49"
         style="fill:#6dcec2;fill-opacity:1;fill-rule:nonzero;stroke:none"
         id="path300" />
      <path
         d="m 3448.02,3306.64 12.83,23.7 13.47,-17.5 c -8.36,-2 -17.15,-4.07 -26.3,-6.2"
         style="fill:#6fcdad;fill-opacity:1;fill-rule:nonzero;stroke:none"
         id="path302" />
      <path
         d="m 3207.68,2684.17 v 178.45 l 157.88,291.67 v -420.82 c -50.6,-17.94 -102.45,-34.13 -157.88,-49.3"
         style="fill:#6dcec2;fill-opacity:1;fill-rule:nonzero;stroke:none"
         id="path304" />
      <path
         d="m 3196.98,2659.48 c -2.33,0 -4.63,0.76 -6.51,2.2 -2.65,2.04 -4.19,5.17 -4.19,8.5 v 152.9 l 21.4,39.54 v -178.45 c 55.43,15.17 107.28,31.36 157.88,49.3 v 420.82 l 21.4,39.54 v -467.91 c 0,-4.52 -2.83,-8.55 -7.09,-10.08 -57.47,-20.6 -116.38,-38.92 -180.11,-56 -0.92,-0.25 -1.85,-0.36 -2.78,-0.36"
         style="fill:#a1dfd6;fill-opacity:1;fill-rule:nonzero;stroke:none"
         id="path306" />
      <path
         d="m 3551.67,2809.65 v 402.71 l 157.86,-205.07 V 2893.4 c -8.21,-5.11 -16.69,-10.27 -25.65,-15.03 -46.97,-26.92 -90.38,-49.49 -132.21,-68.72"
         style="fill:#6dcec2;fill-opacity:1;fill-rule:nonzero;stroke:none"
         id="path308" />
      <path
         d="m 3540.97,2782.37 c -2.04,0 -4.08,0.57 -5.83,1.73 -3.04,1.97 -4.88,5.35 -4.88,8.97 v 447.1 l 21.41,-27.81 v -402.71 c 41.83,19.23 85.24,41.8 132.21,68.72 8.96,4.76 17.44,9.92 25.65,15.03 v 113.89 l 21.41,-27.81 v -92.01 c 0,-3.7 -1.9,-7.12 -5.02,-9.08 -10.1,-6.32 -20.54,-12.85 -31.71,-18.77 -52.95,-30.36 -101.75,-55.38 -148.9,-76.33 -1.39,-0.62 -2.87,-0.92 -4.34,-0.92"
         style="fill:#a1dfd6;fill-opacity:1;fill-rule:nonzero;stroke:none"
         id="path310" />
      <path
         d="m 1953.78,2514.83 c -307.76,43.13 -591.7,131.42 -818.21,256.12 -327.175,180.22 -510.625,419 -516.55,672.11 v 24.55 l -3.102,830.81 c 11.941,-8.32 36.52,-34.13 62.309,-61.22 53.636,-56.35 134.703,-141.5 243.949,-227.59 3.844,-3.11 7.75,-6.13 11.668,-9.14 l 4.176,-3.22 c 11.671,-9.02 24.109,-18.2 38.019,-28.09 46.151,-32.79 96.701,-64.35 150.261,-93.78 224.22,-123.52 504.19,-211.66 807.62,-255.99 -6.53,-13.06 -12.81,-26.5 -19.19,-40.04 -42.52,-90.21 -152.82,-298.07 -152.82,-298.07 l -232.67,105.22 -59.5,99.95 c -1.52,2.56 -4.05,4.36 -6.96,4.99 -0.75,0.16 -1.5,0.24 -2.25,0.24 -2.19,0 -4.34,-0.68 -6.15,-1.96 l -19.33,-13.61 c -0.25,0.93 -0.48,1.83 -0.69,2.67 -10.62,42.29 -32.12,56.35 -51.31,91.6 -14.78,27.16 -14.72,46.28 -22.15,46.28 -0.09,0 -0.19,-0.01 -0.29,-0.02 -9.94,-0.66 -28.92,-10.78 -29.31,-38.5 -0.19,-13.94 2.95,-25.13 9.47,-49.78 0,0 -33.22,27.17 -65.96,77.51 -19.59,30.13 -37.52,46.16 -54.24,46.16 -21.13,0 -40.33,-25.6 -58.51,-80.66 -19.88,-60.2 0.85,-120.31 114.35,-206.92 l -57.17,-40.24 c -3.46,-2.44 -5.16,-6.7 -4.33,-10.86 l 25.33,-125.96 -263.275,614.13 c 1.746,-0.67 3.5,-1.33 5.262,-1.98 l -0.008,96.77 c -193.336,91.44 -299.145,262.52 -299.145,262.52 v -113.5 c 0,0 72.672,-127.68 222.274,-210.5 l -33.75,-47.69 c -122.68,89.83 -188.524,196.28 -188.524,196.28 v -113.5 c 0,0 45.356,-79.68 138.149,-153.97 l -27.5,-38.86 c -72.442,69.14 -110.649,130.92 -110.649,130.92 v -113.5 c 0,0 20.992,-36.88 63.637,-83.86 l -51.863,-73.29 c -1.278,-1.81 -1.961,-3.97 -1.961,-6.18 v -215.72 c 0,-1.63 0.371,-3.23 1.082,-4.69 1.379,-2.84 142.258,-285 500.841,-467.01 312.96,-158.81 634.72,-205.01 637.93,-205.46 l 1.47,-0.09 c 2.57,0 5.07,0.92 7.03,2.62 2.34,2.04 3.68,4.99 3.68,8.08 l -0.03,204.4 c 0,1.93 -0.52,3.82 -1.51,5.48 l -101.1,169.84 c 20.91,-10.81 38.51,-16.7 53.54,-16.7 9.75,0 18.42,2.47 26.23,7.68 19.34,12.92 162.89,196.97 242.86,300.46 3.33,-62.88 6.56,-107.26 6.56,-107.26 l -16.76,-450.71 c 1.95,-1.42 4.05,-2.85 6.29,-4.27 l -5.24,-236.11 c -34.02,-1.87 -68.11,-4.18 -101.98,-6.89 M 794.602,4134.77 c -104.516,99.57 -164.852,177.02 -183.282,177.01 -1.187,0 -2.199,-0.32 -3.039,-0.98 0.84,0.66 1.852,0.98 3.039,0.98 18.434,0 78.75,-77.43 183.282,-177.01"
         style="fill:#a1dfd5;fill-opacity:1;fill-rule:nonzero;stroke:none"
         id="path312" />
      <path
         d="m 2055.33,2502.33 c -34.1,3.62 -67.97,7.79 -101.55,12.5 33.87,2.71 67.96,5.02 101.98,6.89 l -0.43,-19.39"
         style="fill:#95dbce;fill-opacity:1;fill-rule:nonzero;stroke:none"
         id="path314" />
      <path
         d="m 1276.41,3364.45 c -113.5,86.61 -134.23,146.72 -114.35,206.92 18.18,55.06 37.38,80.66 58.51,80.66 16.72,0 34.65,-16.03 54.24,-46.16 32.74,-50.34 65.96,-77.51 65.96,-77.51 -6.52,24.65 -9.66,35.84 -9.47,49.78 0.39,27.72 19.37,37.84 29.31,38.5 0.1,0.01 0.2,0.02 0.29,0.02 7.43,0 7.37,-19.12 22.15,-46.28 19.19,-35.25 40.69,-49.31 51.31,-91.6 0.21,-0.84 0.44,-1.74 0.69,-2.67 l -158.64,-111.66"
         style="fill:#b4aea1;fill-opacity:1;fill-rule:nonzero;stroke:none"
         id="path316" />
      <path
         d="m 2207.41,2489.95 c -51.12,2.91 -101.86,7.05 -152.08,12.38 l 0.43,19.39 5.24,236.11 c 28.79,-18.31 81.2,-36.8 145.77,-50.82 l 0.64,-217.06"
         style="fill:#1a7974;fill-opacity:1;fill-rule:nonzero;stroke:none"
         id="path318" />
      <path
         d="m 2206.77,2707.01 c -64.57,14.02 -116.98,32.51 -145.77,50.82 -2.24,1.42 -4.34,2.85 -6.29,4.27 l 16.76,450.71 c 0,0 -3.23,44.38 -6.56,107.26 31.7,41.03 53.42,69.4 53.42,69.4 35.79,56.05 56.89,132.41 60.44,204.11 8.45,-0.56 16.91,-1.08 25.38,-1.57 l 2.62,-885"
         style="fill:#218984;fill-opacity:1;fill-rule:nonzero;stroke:none"
         id="path320" />
      <path
         d="m 1795.82,3011.93 c -15.03,0 -32.63,5.89 -53.54,16.7 l -213.04,357.87 232.67,-105.22 c 0,0 110.3,207.86 152.82,298.07 6.38,13.54 12.66,26.98 19.19,40.04 80.18,-11.71 161.99,-20.37 244.85,-25.81 -3.55,-71.7 -24.65,-148.06 -60.44,-204.11 0,0 -21.72,-28.37 -53.42,-69.4 -79.97,-103.49 -223.52,-287.54 -242.86,-300.46 -7.81,-5.21 -16.48,-7.68 -26.23,-7.68"
         style="fill:#1a7974;fill-opacity:1;fill-rule:nonzero;stroke:none"
         id="path322" />
      <path
         d="m 1823.51,2661.41 c -61.32,10.02 -343.5,61.62 -619.01,201.45 -335.473,170.27 -476.613,429.05 -490.207,455.17 v 209.74 l 47.375,66.95 c 49.559,-51.07 122.824,-109.91 220.559,-146 l -0.008,96.77 c -68.977,32.62 -126.813,75.38 -172.672,116.89 l 28.629,40.46 c 40.078,-29.88 88.051,-58.03 144.051,-78.71 l -0.008,96.77 c -33.75,15.96 -64.848,34.36 -93.164,53.84 l 35.375,49.99 c 7.875,-3.98 15.953,-7.82 24.222,-11.51 l 312.598,-729.2 c 1.74,-4.03 5.7,-6.48 9.88,-6.48 1.05,0 2.11,0.15 3.15,0.47 5.24,1.63 8.39,6.96 7.32,12.34 l -44.32,220.38 57.29,40.33 c 26.1,-18.36 60.81,-39.05 98.86,-63.36 v 0 c 0,0 130.26,-109.32 242.16,-189.34 25.5,-18.24 48.14,-34.12 68.3,-47.11 l 119.59,-200.88 0.03,-188.96 m -328.37,740.51 -9.06,4.1 c 0,0 0,0 0,-0.01 -8.6,5.41 -16.61,10.71 -23.97,15.88 -8.05,5.67 -15.03,19.4 -20.18,32.9 l 15.32,10.78 37.89,-63.65"
         style="fill:#a1dfd5;fill-opacity:1;fill-rule:nonzero;stroke:none"
         id="path324" />
      <path
         d="m 1393.43,3287.7 c -38.05,24.31 -72.76,45 -98.86,63.36 l 147.36,103.73 c 5.15,-13.5 12.13,-27.23 20.18,-32.9 7.36,-5.17 15.37,-10.47 23.97,-15.88 -0.2,-0.74 -20.24,-74.78 -92.65,-118.31"
         style="fill:#b4aea1;fill-opacity:1;fill-rule:nonzero;stroke:none"
         id="path326" />
      <path
         d="m 1703.89,3051.25 c -20.16,12.99 -42.8,28.87 -68.3,47.11 -111.9,80.02 -242.16,189.34 -242.16,189.34 v 0 c 72.41,43.53 92.45,117.57 92.65,118.31 0,0.01 0,0.01 0,0.01 l 9.06,-4.1 208.75,-350.67"
         style="fill:#1a7974;fill-opacity:1;fill-rule:nonzero;stroke:none"
         id="path328" />
      <path
         d="m 611.32,4311.78 c -4.113,0 -6.144,-3.85 -6.109,-12.17 l 3.102,-832.04 v -24.51 c 5.777,-246.97 179.847,-492.97 522.087,-681.49 304.13,-167.42 690.69,-261.74 1087.74,-282.93 l -3.32,1123.5 c -395.55,21.52 -780.4,115.72 -1083.35,282.61 -53.95,29.65 -103.73,60.8 -149.228,93.14 -12.957,9.2 -25.48,18.41 -37.679,27.83 -5.25,4.07 -10.497,8.03 -15.633,12.21 -188.465,148.5 -292.36,293.86 -317.61,293.85 m 4.598,-13.36 c 11.941,-8.32 36.52,-34.13 62.309,-61.22 53.636,-56.35 134.703,-141.5 243.949,-227.59 3.844,-3.11 7.75,-6.13 11.668,-9.14 l 4.176,-3.22 c 11.671,-9.02 24.109,-18.2 38.019,-28.09 46.151,-32.79 96.701,-64.35 150.261,-93.78 289.51,-159.49 671.96,-259.99 1077.85,-283.37 l 3.26,-1102.06 c -403.98,23.02 -784.22,122.66 -1071.84,281 -327.175,180.22 -510.625,419 -516.55,672.11 v 24.55 l -3.102,830.81 m 0.402,5.68 h 0.051 -0.051"
         style="fill:#26b6a6;fill-opacity:1;fill-rule:nonzero;stroke:none"
         id="path330" />
      <path
         d="m 714.293,3318.03 c 13.594,-26.12 154.734,-284.9 490.207,-455.17 275.51,-139.83 557.69,-191.43 619.01,-201.45 l -0.03,188.96 -366.23,615.2 -219.97,-154.84 44.32,-220.38 c 1.07,-5.38 -2.08,-10.71 -7.32,-12.34 -5.21,-1.6 -10.86,0.97 -13.03,6.01 L 936.441,3841.7 714.293,3527.77 v -209.74 m 1119.917,-679.82 -1.47,0.09 c -3.21,0.45 -324.97,46.65 -637.93,205.46 -358.583,182.01 -499.462,464.17 -500.841,467.01 -0.711,1.46 -1.082,3.06 -1.082,4.69 v 215.72 c 0,2.21 0.683,4.37 1.961,6.18 l 235.156,332.31 c 2.246,3.16 6.086,4.88 9.863,4.47 3.86,-0.41 7.188,-2.87 8.723,-6.43 l 291.65,-680.32 -25.33,125.96 c -0.83,4.16 0.87,8.42 4.33,10.86 l 235.14,165.51 c 2.43,1.72 5.46,2.35 8.4,1.72 2.91,-0.63 5.44,-2.43 6.96,-4.99 l 373.64,-627.66 c 0.99,-1.66 1.51,-3.55 1.51,-5.48 l 0.03,-204.4 c 0,-3.09 -1.34,-6.04 -3.68,-8.08 -1.96,-1.7 -4.46,-2.62 -7.03,-2.62"
         style="fill:#ffffff;fill-opacity:1;fill-rule:nonzero;stroke:none"
         id="path332" />
      <path
         d="m 1794.01,3526.16 c -17.24,0 -33.38,-5.66 -46.59,-16.54 -20.93,-17.21 -32.93,-45.96 -32.93,-78.85 0,-64.37 44.66,-125.48 99.57,-136.23 23.08,-4.54 45.29,0.79 62.52,14.96 20.92,17.21 32.93,45.96 32.93,78.85 0,64.37 -44.67,125.48 -99.57,136.24 -5.37,1.05 -10.71,1.57 -15.93,1.57 z m 36.1,-254.63 c -6.63,0 -13.37,0.66 -20.17,1.99 -64.44,12.63 -116.86,83.16 -116.86,157.25 0,39.31 14.84,74.09 40.72,95.39 22.26,18.32 50.72,25.21 80.26,19.44 64.43,-12.63 116.85,-83.16 116.85,-157.25 0,-39.31 -14.84,-74.09 -40.72,-95.39 -17.13,-14.09 -37.95,-21.43 -60.08,-21.43"
         style="fill:#ffffff;fill-opacity:1;fill-rule:nonzero;stroke:none"
         id="path334" />
      <path
         d="m 982.227,3799.54 c -1.762,0.65 -3.516,1.31 -5.262,1.98 l -28.375,66.19 c -1.535,3.56 -4.863,6.02 -8.723,6.43 -0.371,0.04 -0.738,0.06 -1.109,0.06 -3.406,0 -6.727,-1.68 -8.754,-4.53 l -24.656,-34.84 c -149.602,82.82 -222.274,210.5 -222.274,210.5 v 113.5 c 0,0 105.809,-171.08 299.145,-262.52 l 0.008,-96.77 m -33.575,13.68 c -8.269,3.69 -16.347,7.53 -24.222,11.51 l 12.011,16.97 12.211,-28.48"
         style="fill:#6dcec2;fill-opacity:1;fill-rule:nonzero;stroke:none"
         id="path336" />
      <path
         d="m 976.965,3801.52 c -9.684,3.68 -19.117,7.59 -28.313,11.7 l -12.211,28.48 -12.011,-16.97 c -6.496,3.28 -12.852,6.65 -19.082,10.1 l 24.656,34.84 c 2.027,2.85 5.348,4.53 8.754,4.53 0.371,0 0.738,-0.02 1.109,-0.06 3.86,-0.41 7.188,-2.87 8.723,-6.43 l 28.375,-66.19"
         style="fill:#a1dfd6;fill-opacity:1;fill-rule:nonzero;stroke:none"
         id="path338" />
      <path
         d="m 982.227,3624.13 c -56,20.68 -103.973,48.83 -144.051,78.71 l 50.879,71.9 c 28.316,-19.48 59.414,-37.88 93.164,-53.84 l 0.008,-96.77 m -161.004,91.82 c -92.793,74.29 -138.149,153.97 -138.149,153.97 v 113.5 c 0,0 65.844,-106.45 188.524,-196.28 l -50.375,-71.19"
         style="fill:#6dcec2;fill-opacity:1;fill-rule:nonzero;stroke:none"
         id="path340" />
      <path
         d="m 838.176,3702.84 c -5.821,4.34 -11.465,8.71 -16.953,13.11 l 50.375,71.19 c 5.707,-4.18 11.507,-8.3 17.457,-12.4 l -50.879,-71.9"
         style="fill:#a1dfd6;fill-opacity:1;fill-rule:nonzero;stroke:none"
         id="path342" />
      <path
         d="m 982.227,3448.72 c -97.735,36.09 -171,94.93 -220.559,146 l 47.879,67.66 c 45.859,-41.51 103.695,-84.27 172.672,-116.89 l 0.008,-96.77 m -235.516,161.93 c -42.645,46.98 -63.637,83.86 -63.637,83.86 v 113.5 c 0,0 38.207,-61.78 110.649,-130.92 l -47.012,-66.44"
         style="fill:#6dcec2;fill-opacity:1;fill-rule:nonzero;stroke:none"
         id="path344" />
      <path
         d="m 761.668,3594.72 c -5.25,5.41 -10.238,10.73 -14.957,15.93 l 47.012,66.44 c 5.105,-4.88 10.379,-9.78 15.824,-14.71 l -47.879,-67.66"
         style="fill:#a1dfd6;fill-opacity:1;fill-rule:nonzero;stroke:none"
         id="path346" />
    </g>
  </g>
</svg>
